<svg width="1500" height="500" viewBox="0 0 1500 500" fill="none" xmlns="http://www.w3.org/2000/svg">
<rect width="1500" height="500" fill="#7FC8F8"/>
<path d="M490.161 208.203V224.562C490.161 225.702 490.426 226.536 490.955 227.065C491.525 227.553 492.46 227.797 493.763 227.797H497.73V235H492.359C485.156 235 481.555 231.5 481.555 224.501V208.203H477.526V201.184H481.555V192.821H490.161V201.184H497.73V208.203H490.161ZM535.801 201.184V235H527.194V230.727C526.095 232.192 524.651 233.352 522.86 234.206C521.11 235.02 519.198 235.427 517.122 235.427C514.477 235.427 512.137 234.878 510.103 233.779C508.068 232.64 506.461 230.992 505.281 228.835C504.141 226.638 503.571 224.033 503.571 221.022V201.184H512.117V219.801C512.117 222.487 512.789 224.562 514.131 226.027C515.474 227.451 517.305 228.164 519.625 228.164C521.985 228.164 523.837 227.451 525.18 226.027C526.523 224.562 527.194 222.487 527.194 219.801V201.184H535.801ZM552.778 206.433C553.877 204.643 555.301 203.239 557.051 202.222C558.841 201.204 560.876 200.696 563.155 200.696V209.668H560.896C558.21 209.668 556.176 210.299 554.792 211.561C553.449 212.822 552.778 215.02 552.778 218.153V235H544.232V201.184H552.778V206.433ZM587.65 200.696C591.678 200.696 594.934 201.977 597.416 204.541C599.898 207.064 601.14 210.604 601.14 215.162V235H592.594V216.322C592.594 213.636 591.923 211.581 590.58 210.157C589.237 208.692 587.406 207.959 585.086 207.959C582.726 207.959 580.854 208.692 579.47 210.157C578.128 211.581 577.456 213.636 577.456 216.322V235H568.911V201.184H577.456V205.396C578.596 203.931 580.04 202.791 581.79 201.977C583.58 201.123 585.534 200.696 587.65 200.696ZM613.6 197.155C612.094 197.155 610.833 196.687 609.815 195.751C608.839 194.775 608.35 193.574 608.35 192.15C608.35 190.726 608.839 189.546 609.815 188.61C610.833 187.633 612.094 187.145 613.6 187.145C615.106 187.145 616.347 187.633 617.323 188.61C618.341 189.546 618.849 190.726 618.849 192.15C618.849 193.574 618.341 194.775 617.323 195.751C616.347 196.687 615.106 197.155 613.6 197.155ZM617.812 201.184V235H609.266V201.184H617.812ZM644.994 200.696C649.023 200.696 652.278 201.977 654.76 204.541C657.243 207.064 658.484 210.604 658.484 215.162V235H649.938V216.322C649.938 213.636 649.267 211.581 647.924 210.157C646.581 208.692 644.75 207.959 642.43 207.959C640.07 207.959 638.198 208.692 636.815 210.157C635.472 211.581 634.8 213.636 634.8 216.322V235H626.255V201.184H634.8V205.396C635.94 203.931 637.384 202.791 639.134 201.977C640.925 201.123 642.878 200.696 644.994 200.696ZM679.856 200.634C682.379 200.634 684.597 201.143 686.509 202.16C688.422 203.137 689.928 204.419 691.026 206.006V201.184H699.633V235.244C699.633 238.378 699.002 241.165 697.741 243.607C696.479 246.089 694.587 248.042 692.064 249.466C689.541 250.931 686.489 251.664 682.908 251.664C678.106 251.664 674.159 250.545 671.066 248.307C668.014 246.069 666.285 243.017 665.878 239.151H674.362C674.81 240.697 675.766 241.918 677.231 242.813C678.737 243.749 680.548 244.217 682.664 244.217C685.146 244.217 687.16 243.464 688.707 241.959C690.253 240.494 691.026 238.255 691.026 235.244V229.995C689.928 231.582 688.402 232.904 686.448 233.962C684.536 235.02 682.338 235.549 679.856 235.549C677.007 235.549 674.403 234.817 672.043 233.352C669.683 231.887 667.811 229.832 666.427 227.187C665.084 224.501 664.413 221.429 664.413 217.97C664.413 214.552 665.084 211.52 666.427 208.875C667.811 206.23 669.662 204.195 671.982 202.771C674.342 201.347 676.967 200.634 679.856 200.634ZM691.026 218.092C691.026 216.017 690.619 214.246 689.805 212.781C688.992 211.276 687.893 210.136 686.509 209.363C685.126 208.549 683.64 208.142 682.053 208.142C680.466 208.142 679.001 208.529 677.659 209.302C676.316 210.075 675.217 211.215 674.362 212.72C673.549 214.185 673.142 215.935 673.142 217.97C673.142 220.005 673.549 221.795 674.362 223.341C675.217 224.847 676.316 226.007 677.659 226.821C679.042 227.635 680.507 228.041 682.053 228.041C683.64 228.041 685.126 227.655 686.509 226.882C687.893 226.068 688.992 224.928 689.805 223.463C690.619 221.958 691.026 220.167 691.026 218.092ZM726.858 197.155C725.352 197.155 724.091 196.687 723.073 195.751C722.097 194.775 721.608 193.574 721.608 192.15C721.608 190.726 722.097 189.546 723.073 188.61C724.091 187.633 725.352 187.145 726.858 187.145C728.363 187.145 729.605 187.633 730.581 188.61C731.598 189.546 732.107 190.726 732.107 192.15C732.107 193.574 731.598 194.775 730.581 195.751C729.605 196.687 728.363 197.155 726.858 197.155ZM731.069 201.184V235H722.524V201.184H731.069ZM737.315 217.97C737.315 214.552 737.987 211.52 739.329 208.875C740.713 206.23 742.585 204.195 744.945 202.771C747.305 201.347 749.93 200.634 752.819 200.634C755.017 200.634 757.112 201.123 759.106 202.099C761.1 203.035 762.687 204.297 763.868 205.884V189.83H772.535V235H763.868V229.995C762.809 231.663 761.324 233.006 759.412 234.023C757.499 235.041 755.281 235.549 752.758 235.549C749.91 235.549 747.305 234.817 744.945 233.352C742.585 231.887 740.713 229.832 739.329 227.187C737.987 224.501 737.315 221.429 737.315 217.97ZM763.929 218.092C763.929 216.017 763.522 214.246 762.708 212.781C761.894 211.276 760.795 210.136 759.412 209.363C758.028 208.549 756.543 208.142 754.956 208.142C753.369 208.142 751.904 208.529 750.561 209.302C749.218 210.075 748.119 211.215 747.265 212.72C746.451 214.185 746.044 215.935 746.044 217.97C746.044 220.005 746.451 221.795 747.265 223.341C748.119 224.847 749.218 226.007 750.561 226.821C751.944 227.635 753.409 228.041 754.956 228.041C756.543 228.041 758.028 227.655 759.412 226.882C760.795 226.068 761.894 224.928 762.708 223.463C763.522 221.958 763.929 220.167 763.929 218.092ZM812.317 217.359C812.317 218.58 812.236 219.679 812.073 220.656H787.352C787.555 223.097 788.41 225.01 789.915 226.393C791.421 227.777 793.273 228.469 795.47 228.469C798.644 228.469 800.903 227.105 802.245 224.379H811.463C810.486 227.635 808.614 230.32 805.847 232.436C803.08 234.512 799.682 235.549 795.653 235.549C792.398 235.549 789.468 234.837 786.863 233.413C784.3 231.948 782.285 229.893 780.82 227.248C779.396 224.603 778.684 221.551 778.684 218.092C778.684 214.592 779.396 211.52 780.82 208.875C782.245 206.23 784.239 204.195 786.802 202.771C789.366 201.347 792.316 200.634 795.653 200.634C798.868 200.634 801.737 201.326 804.26 202.71C806.823 204.093 808.797 206.067 810.181 208.631C811.605 211.154 812.317 214.063 812.317 217.359ZM803.466 214.918C803.426 212.72 802.632 210.971 801.086 209.668C799.539 208.326 797.647 207.654 795.409 207.654C793.293 207.654 791.502 208.305 790.037 209.607C788.613 210.869 787.738 212.639 787.413 214.918H803.466ZM816.357 217.97C816.357 214.552 817.029 211.52 818.371 208.875C819.755 206.23 821.607 204.195 823.926 202.771C826.286 201.347 828.911 200.634 831.8 200.634C834.323 200.634 836.521 201.143 838.393 202.16C840.305 203.178 841.831 204.46 842.971 206.006V201.184H851.577V235H842.971V230.056C841.872 231.643 840.346 232.965 838.393 234.023C836.48 235.041 834.262 235.549 831.739 235.549C828.891 235.549 826.286 234.817 823.926 233.352C821.607 231.887 819.755 229.832 818.371 227.187C817.029 224.501 816.357 221.429 816.357 217.97ZM842.971 218.092C842.971 216.017 842.564 214.246 841.75 212.781C840.936 211.276 839.837 210.136 838.454 209.363C837.07 208.549 835.585 208.142 833.998 208.142C832.411 208.142 830.946 208.529 829.603 209.302C828.26 210.075 827.161 211.215 826.307 212.72C825.493 214.185 825.086 215.935 825.086 217.97C825.086 220.005 825.493 221.795 826.307 223.341C827.161 224.847 828.26 226.007 829.603 226.821C830.986 227.635 832.451 228.041 833.998 228.041C835.585 228.041 837.07 227.655 838.454 226.882C839.837 226.068 840.936 224.928 841.75 223.463C842.564 221.958 842.971 220.167 842.971 218.092ZM872.864 235.549C870.097 235.549 867.615 235.061 865.417 234.084C863.22 233.067 861.47 231.704 860.168 229.995C858.906 228.286 858.214 226.393 858.092 224.318H866.699C866.862 225.62 867.492 226.699 868.591 227.553C869.731 228.408 871.135 228.835 872.803 228.835C874.431 228.835 875.692 228.509 876.587 227.858C877.523 227.207 877.991 226.373 877.991 225.356C877.991 224.257 877.422 223.443 876.282 222.914C875.183 222.344 873.413 221.734 870.972 221.083C868.449 220.472 866.373 219.842 864.746 219.191C863.159 218.54 861.775 217.543 860.595 216.2C859.456 214.857 858.886 213.046 858.886 210.767C858.886 208.895 859.415 207.186 860.473 205.64C861.572 204.093 863.118 202.873 865.112 201.977C867.147 201.082 869.527 200.634 872.254 200.634C876.282 200.634 879.497 201.652 881.898 203.686C884.299 205.68 885.621 208.387 885.865 211.805H877.686C877.564 210.462 876.994 209.404 875.977 208.631C875 207.817 873.678 207.41 872.009 207.41C870.463 207.41 869.263 207.695 868.408 208.264C867.594 208.834 867.187 209.628 867.187 210.645C867.187 211.784 867.757 212.659 868.896 213.27C870.036 213.839 871.806 214.43 874.207 215.04C876.648 215.65 878.663 216.281 880.25 216.932C881.837 217.583 883.2 218.601 884.339 219.984C885.52 221.327 886.13 223.118 886.171 225.356C886.171 227.309 885.621 229.059 884.523 230.605C883.465 232.151 881.918 233.372 879.884 234.268C877.89 235.122 875.55 235.549 872.864 235.549ZM912.064 197.155C910.558 197.155 909.297 196.687 908.28 195.751C907.303 194.775 906.815 193.574 906.815 192.15C906.815 190.726 907.303 189.546 908.28 188.61C909.297 187.633 910.558 187.145 912.064 187.145C913.57 187.145 914.811 187.633 915.788 188.61C916.805 189.546 917.314 190.726 917.314 192.15C917.314 193.574 916.805 194.775 915.788 195.751C914.811 196.687 913.57 197.155 912.064 197.155ZM916.276 201.184V235H907.73V201.184H916.276ZM943.458 200.696C947.487 200.696 950.742 201.977 953.225 204.541C955.707 207.064 956.948 210.604 956.948 215.162V235H948.402V216.322C948.402 213.636 947.731 211.581 946.388 210.157C945.045 208.692 943.214 207.959 940.894 207.959C938.534 207.959 936.662 208.692 935.279 210.157C933.936 211.581 933.264 213.636 933.264 216.322V235H924.719V201.184H933.264V205.396C934.404 203.931 935.848 202.791 937.598 201.977C939.389 201.123 941.342 200.696 943.458 200.696ZM975.024 208.203V224.562C975.024 225.702 975.288 226.536 975.817 227.065C976.387 227.553 977.323 227.797 978.625 227.797H982.593V235H977.221C970.019 235 966.417 231.5 966.417 224.501V208.203H962.389V201.184H966.417V192.821H975.024V201.184H982.593V208.203H975.024ZM1003.76 235.549C1000.5 235.549 997.57 234.837 994.965 233.413C992.361 231.948 990.306 229.893 988.8 227.248C987.335 224.603 986.603 221.551 986.603 218.092C986.603 214.633 987.356 211.581 988.861 208.936C990.408 206.291 992.503 204.256 995.149 202.832C997.794 201.367 1000.74 200.634 1004 200.634C1007.25 200.634 1010.21 201.367 1012.85 202.832C1015.5 204.256 1017.57 206.291 1019.08 208.936C1020.62 211.581 1021.4 214.633 1021.4 218.092C1021.4 221.551 1020.6 224.603 1019.02 227.248C1017.47 229.893 1015.35 231.948 1012.67 233.413C1010.02 234.837 1007.05 235.549 1003.76 235.549ZM1003.76 228.102C1005.3 228.102 1006.75 227.736 1008.09 227.004C1009.47 226.231 1010.57 225.091 1011.39 223.586C1012.2 222.08 1012.61 220.249 1012.61 218.092C1012.61 214.877 1011.75 212.415 1010.04 210.706C1008.37 208.956 1006.32 208.081 1003.88 208.081C1001.44 208.081 999.381 208.956 997.712 210.706C996.084 212.415 995.271 214.877 995.271 218.092C995.271 221.307 996.064 223.789 997.651 225.539C999.279 227.248 1001.31 228.102 1003.76 228.102Z" fill="white"/>
<path d="M493.457 273.634C495.98 273.634 498.198 274.143 500.111 275.16C502.023 276.137 503.529 277.419 504.628 279.006V274.184H513.234V308.244C513.234 311.378 512.604 314.165 511.342 316.607C510.081 319.089 508.188 321.042 505.665 322.466C503.142 323.931 500.09 324.664 496.509 324.664C491.708 324.664 487.76 323.545 484.668 321.307C481.616 319.069 479.886 316.017 479.479 312.151H487.964C488.411 313.697 489.368 314.918 490.833 315.813C492.338 316.749 494.149 317.217 496.265 317.217C498.748 317.217 500.762 316.464 502.308 314.959C503.855 313.494 504.628 311.255 504.628 308.244V302.995C503.529 304.582 502.003 305.904 500.05 306.962C498.137 308.02 495.94 308.549 493.457 308.549C490.609 308.549 488.005 307.817 485.644 306.352C483.284 304.887 481.412 302.832 480.029 300.187C478.686 297.501 478.014 294.429 478.014 290.97C478.014 287.552 478.686 284.52 480.029 281.875C481.412 279.23 483.264 277.195 485.583 275.771C487.943 274.347 490.568 273.634 493.457 273.634ZM504.628 291.092C504.628 289.017 504.221 287.246 503.407 285.781C502.593 284.276 501.494 283.136 500.111 282.363C498.727 281.549 497.242 281.142 495.655 281.142C494.068 281.142 492.603 281.529 491.26 282.302C489.917 283.075 488.818 284.215 487.964 285.72C487.15 287.185 486.743 288.935 486.743 290.97C486.743 293.005 487.15 294.795 487.964 296.341C488.818 297.847 489.917 299.007 491.26 299.821C492.644 300.635 494.109 301.041 495.655 301.041C497.242 301.041 498.727 300.655 500.111 299.882C501.494 299.068 502.593 297.928 503.407 296.463C504.221 294.958 504.628 293.167 504.628 291.092ZM530.126 279.433C531.225 277.643 532.649 276.239 534.399 275.222C536.19 274.204 538.224 273.696 540.503 273.696V282.668H538.245C535.559 282.668 533.524 283.299 532.141 284.561C530.798 285.822 530.126 288.02 530.126 291.153V308H521.581V274.184H530.126V279.433ZM577.695 290.359C577.695 291.58 577.613 292.679 577.45 293.656H552.729C552.933 296.097 553.787 298.01 555.293 299.393C556.799 300.777 558.65 301.469 560.848 301.469C564.022 301.469 566.28 300.105 567.623 297.379H576.84C575.863 300.635 573.991 303.32 571.224 305.436C568.457 307.512 565.059 308.549 561.031 308.549C557.775 308.549 554.845 307.837 552.241 306.413C549.677 304.948 547.663 302.893 546.198 300.248C544.774 297.603 544.062 294.551 544.062 291.092C544.062 287.592 544.774 284.52 546.198 281.875C547.622 279.23 549.616 277.195 552.18 275.771C554.744 274.347 557.694 273.634 561.031 273.634C564.245 273.634 567.114 274.326 569.637 275.71C572.201 277.093 574.175 279.067 575.558 281.631C576.982 284.154 577.695 287.063 577.695 290.359ZM568.844 287.918C568.803 285.72 568.01 283.971 566.463 282.668C564.917 281.326 563.025 280.654 560.786 280.654C558.67 280.654 556.88 281.305 555.415 282.607C553.991 283.869 553.116 285.639 552.79 287.918H568.844ZM581.735 290.97C581.735 287.552 582.406 284.52 583.749 281.875C585.133 279.23 586.984 277.195 589.304 275.771C591.664 274.347 594.289 273.634 597.178 273.634C599.701 273.634 601.898 274.143 603.77 275.16C605.683 276.178 607.209 277.46 608.348 279.006V274.184H616.955V308H608.348V303.056C607.249 304.643 605.723 305.965 603.77 307.023C601.857 308.041 599.64 308.549 597.117 308.549C594.268 308.549 591.664 307.817 589.304 306.352C586.984 304.887 585.133 302.832 583.749 300.187C582.406 297.501 581.735 294.429 581.735 290.97ZM608.348 291.092C608.348 289.017 607.941 287.246 607.127 285.781C606.313 284.276 605.215 283.136 603.831 282.363C602.448 281.549 600.962 281.142 599.375 281.142C597.788 281.142 596.323 281.529 594.98 282.302C593.637 283.075 592.539 284.215 591.684 285.72C590.87 287.185 590.463 288.935 590.463 290.97C590.463 293.005 590.87 294.795 591.684 296.341C592.539 297.847 593.637 299.007 594.98 299.821C596.364 300.635 597.829 301.041 599.375 301.041C600.962 301.041 602.448 300.655 603.831 299.882C605.215 299.068 606.313 297.928 607.127 296.463C607.941 294.958 608.348 293.167 608.348 291.092ZM635.25 281.203V297.562C635.25 298.702 635.515 299.536 636.044 300.065C636.614 300.553 637.55 300.797 638.852 300.797H642.819V308H637.448C630.245 308 626.644 304.5 626.644 297.501V281.203H622.615V274.184H626.644V265.821H635.25V274.184H642.819V281.203H635.25ZM672.056 279.433C673.155 277.643 674.579 276.239 676.329 275.222C678.119 274.204 680.154 273.696 682.433 273.696V282.668H680.175C677.489 282.668 675.454 283.299 674.071 284.561C672.728 285.822 672.056 288.02 672.056 291.153V308H663.511V274.184H672.056V279.433ZM719.624 290.359C719.624 291.58 719.543 292.679 719.38 293.656H694.659C694.863 296.097 695.717 298.01 697.223 299.393C698.728 300.777 700.58 301.469 702.777 301.469C705.952 301.469 708.21 300.105 709.553 297.379H718.77C717.793 300.635 715.921 303.32 713.154 305.436C710.387 307.512 706.989 308.549 702.961 308.549C699.705 308.549 696.775 307.837 694.171 306.413C691.607 304.948 689.593 302.893 688.128 300.248C686.704 297.603 685.991 294.551 685.991 291.092C685.991 287.592 686.704 284.52 688.128 281.875C689.552 279.23 691.546 277.195 694.11 275.771C696.673 274.347 699.624 273.634 702.961 273.634C706.175 273.634 709.044 274.326 711.567 275.71C714.131 277.093 716.105 279.067 717.488 281.631C718.912 284.154 719.624 287.063 719.624 290.359ZM710.774 287.918C710.733 285.72 709.939 283.971 708.393 282.668C706.847 281.326 704.955 280.654 702.716 280.654C700.6 280.654 698.81 281.305 697.345 282.607C695.921 283.869 695.046 285.639 694.72 287.918H710.774ZM738.802 308.549C736.035 308.549 733.553 308.061 731.356 307.084C729.158 306.067 727.408 304.704 726.106 302.995C724.845 301.286 724.153 299.393 724.031 297.318H732.637C732.8 298.62 733.431 299.699 734.53 300.553C735.669 301.408 737.073 301.835 738.741 301.835C740.369 301.835 741.631 301.509 742.526 300.858C743.462 300.207 743.93 299.373 743.93 298.356C743.93 297.257 743.36 296.443 742.221 295.914C741.122 295.344 739.352 294.734 736.91 294.083C734.387 293.472 732.312 292.842 730.684 292.191C729.097 291.54 727.714 290.543 726.533 289.2C725.394 287.857 724.824 286.046 724.824 283.767C724.824 281.895 725.353 280.186 726.411 278.64C727.51 277.093 729.056 275.873 731.05 274.977C733.085 274.082 735.466 273.634 738.192 273.634C742.221 273.634 745.435 274.652 747.836 276.686C750.237 278.68 751.56 281.387 751.804 284.805H743.625C743.503 283.462 742.933 282.404 741.916 281.631C740.939 280.817 739.616 280.41 737.948 280.41C736.402 280.41 735.201 280.695 734.347 281.264C733.533 281.834 733.126 282.628 733.126 283.645C733.126 284.784 733.695 285.659 734.835 286.27C735.974 286.839 737.744 287.43 740.145 288.04C742.587 288.65 744.601 289.281 746.188 289.932C747.775 290.583 749.139 291.601 750.278 292.984C751.458 294.327 752.069 296.118 752.109 298.356C752.109 300.309 751.56 302.059 750.461 303.605C749.403 305.151 747.857 306.372 745.822 307.268C743.828 308.122 741.488 308.549 738.802 308.549ZM791.048 274.184V308H782.441V303.727C781.343 305.192 779.898 306.352 778.107 307.206C776.358 308.02 774.445 308.427 772.37 308.427C769.725 308.427 767.385 307.878 765.35 306.779C763.315 305.64 761.708 303.992 760.528 301.835C759.389 299.638 758.819 297.033 758.819 294.022V274.184H767.364V292.801C767.364 295.487 768.036 297.562 769.379 299.027C770.722 300.451 772.553 301.164 774.872 301.164C777.233 301.164 779.084 300.451 780.427 299.027C781.77 297.562 782.441 295.487 782.441 292.801V274.184H791.048ZM808.025 262.83V308H799.48V262.83H808.025ZM826.418 281.203V297.562C826.418 298.702 826.682 299.536 827.211 300.065C827.781 300.553 828.717 300.797 830.019 300.797H833.987V308H828.615C821.413 308 817.811 304.5 817.811 297.501V281.203H813.783V274.184H817.811V265.821H826.418V274.184H833.987V281.203H826.418ZM853.074 308.549C850.307 308.549 847.824 308.061 845.627 307.084C843.429 306.067 841.68 304.704 840.377 302.995C839.116 301.286 838.424 299.393 838.302 297.318H846.909C847.071 298.62 847.702 299.699 848.801 300.553C849.94 301.408 851.344 301.835 853.013 301.835C854.64 301.835 855.902 301.509 856.797 300.858C857.733 300.207 858.201 299.373 858.201 298.356C858.201 297.257 857.631 296.443 856.492 295.914C855.393 295.344 853.623 294.734 851.181 294.083C848.658 293.472 846.583 292.842 844.955 292.191C843.368 291.54 841.985 290.543 840.805 289.2C839.665 287.857 839.095 286.046 839.095 283.767C839.095 281.895 839.625 280.186 840.683 278.64C841.781 277.093 843.328 275.873 845.322 274.977C847.356 274.082 849.737 273.634 852.463 273.634C856.492 273.634 859.707 274.652 862.108 276.686C864.508 278.68 865.831 281.387 866.075 284.805H857.896C857.774 283.462 857.204 282.404 856.187 281.631C855.21 280.817 853.888 280.41 852.219 280.41C850.673 280.41 849.472 280.695 848.618 281.264C847.804 281.834 847.397 282.628 847.397 283.645C847.397 284.784 847.967 285.659 849.106 286.27C850.245 286.839 852.016 287.43 854.417 288.04C856.858 288.65 858.872 289.281 860.459 289.932C862.047 290.583 863.41 291.601 864.549 292.984C865.729 294.327 866.34 296.118 866.38 298.356C866.38 300.309 865.831 302.059 864.732 303.605C863.674 305.151 862.128 306.372 860.093 307.268C858.099 308.122 855.759 308.549 853.074 308.549Z" fill="#FFE45E"/>
</svg>
