<svg width="1500" height="500" viewBox="0 0 1500 500" fill="none" xmlns="http://www.w3.org/2000/svg">
<rect width="1500" height="500" fill="#101319"/>
<path d="M625.177 217.718C629.325 217.718 632.66 218.999 635.181 221.561C637.743 224.082 639.024 227.62 639.024 232.175V252H630.484V233.334C630.484 230.691 629.813 228.678 628.471 227.295C627.129 225.872 625.299 225.16 622.981 225.16C620.663 225.16 618.813 225.872 617.43 227.295C616.088 228.678 615.417 230.691 615.417 233.334V252H606.877V233.334C606.877 230.691 606.206 228.678 604.864 227.295C603.522 225.872 601.692 225.16 599.374 225.16C597.015 225.16 595.145 225.872 593.762 227.295C592.42 228.678 591.749 230.691 591.749 233.334V252H583.209V218.206H591.749V222.293C592.847 220.87 594.25 219.751 595.958 218.938C597.707 218.125 599.618 217.718 601.692 217.718C604.335 217.718 606.694 218.287 608.768 219.426C610.842 220.524 612.448 222.11 613.587 224.184C614.685 222.232 616.271 220.666 618.345 219.487C620.46 218.308 622.737 217.718 625.177 217.718ZM655.668 223.452C656.766 221.663 658.189 220.26 659.938 219.243C661.727 218.226 663.761 217.718 666.038 217.718V226.685H663.781C661.097 226.685 659.064 227.315 657.681 228.576C656.339 229.837 655.668 232.033 655.668 235.164V252H647.128V218.206H655.668V223.452ZM703.205 234.371C703.205 235.591 703.124 236.689 702.961 237.665H678.256C678.459 240.105 679.313 242.016 680.818 243.399C682.323 244.782 684.173 245.473 686.369 245.473C689.541 245.473 691.798 244.111 693.14 241.386H702.351C701.375 244.639 699.504 247.323 696.739 249.438C693.974 251.512 690.578 252.549 686.552 252.549C683.299 252.549 680.371 251.837 677.768 250.414C675.206 248.95 673.193 246.896 671.729 244.253C670.306 241.61 669.594 238.56 669.594 235.103C669.594 231.606 670.306 228.535 671.729 225.892C673.152 223.249 675.145 221.215 677.707 219.792C680.269 218.369 683.217 217.657 686.552 217.657C689.765 217.657 692.632 218.348 695.153 219.731C697.715 221.114 699.687 223.086 701.07 225.648C702.493 228.169 703.205 231.077 703.205 234.371ZM694.36 231.931C694.319 229.735 693.526 227.986 691.981 226.685C690.436 225.343 688.545 224.672 686.308 224.672C684.193 224.672 682.404 225.323 680.94 226.624C679.517 227.885 678.642 229.654 678.317 231.931H694.36ZM707.242 234.981C707.242 231.565 707.913 228.535 709.255 225.892C710.638 223.249 712.488 221.215 714.806 219.792C717.165 218.369 719.788 217.657 722.675 217.657C725.197 217.657 727.393 218.165 729.263 219.182C731.175 220.199 732.7 221.48 733.838 223.025V218.206H742.439V252H733.838V247.059C732.74 248.645 731.215 249.967 729.263 251.024C727.352 252.041 725.136 252.549 722.614 252.549C719.768 252.549 717.165 251.817 714.806 250.353C712.488 248.889 710.638 246.835 709.255 244.192C707.913 241.508 707.242 238.438 707.242 234.981ZM733.838 235.103C733.838 233.029 733.432 231.26 732.618 229.796C731.805 228.291 730.707 227.153 729.324 226.38C727.942 225.567 726.457 225.16 724.871 225.16C723.285 225.16 721.821 225.546 720.479 226.319C719.137 227.092 718.039 228.23 717.185 229.735C716.372 231.199 715.965 232.948 715.965 234.981C715.965 237.014 716.372 238.804 717.185 240.349C718.039 241.854 719.137 243.013 720.479 243.826C721.862 244.639 723.326 245.046 724.871 245.046C726.457 245.046 727.942 244.66 729.324 243.887C730.707 243.074 731.805 241.935 732.618 240.471C733.432 238.966 733.838 237.177 733.838 235.103ZM759.32 223.452C760.418 221.663 761.842 220.26 763.59 219.243C765.38 218.226 767.413 217.718 769.69 217.718V226.685H767.433C764.749 226.685 762.716 227.315 761.333 228.576C759.991 229.837 759.32 232.033 759.32 235.164V252H750.78V218.206H759.32V223.452ZM788.374 252.549C785.609 252.549 783.128 252.061 780.932 251.085C778.736 250.068 776.988 248.706 775.686 246.998C774.426 245.29 773.734 243.399 773.612 241.325H782.213C782.376 242.626 783.006 243.704 784.104 244.558C785.243 245.412 786.646 245.839 788.313 245.839C789.94 245.839 791.201 245.514 792.095 244.863C793.031 244.212 793.498 243.379 793.498 242.362C793.498 241.264 792.929 240.451 791.79 239.922C790.692 239.353 788.923 238.743 786.483 238.092C783.962 237.482 781.888 236.852 780.261 236.201C778.675 235.55 777.293 234.554 776.113 233.212C774.975 231.87 774.405 230.06 774.405 227.783C774.405 225.912 774.934 224.204 775.991 222.659C777.089 221.114 778.635 219.894 780.627 218.999C782.661 218.104 785.04 217.657 787.764 217.657C791.79 217.657 795.003 218.674 797.402 220.707C799.802 222.7 801.123 225.404 801.367 228.82H793.193C793.071 227.478 792.502 226.421 791.485 225.648C790.509 224.835 789.188 224.428 787.52 224.428C785.975 224.428 784.775 224.713 783.921 225.282C783.108 225.851 782.701 226.644 782.701 227.661C782.701 228.8 783.271 229.674 784.409 230.284C785.548 230.853 787.317 231.443 789.716 232.053C792.156 232.663 794.169 233.293 795.755 233.944C797.341 234.595 798.704 235.611 799.842 236.994C801.022 238.336 801.632 240.125 801.672 242.362C801.672 244.314 801.123 246.063 800.025 247.608C798.968 249.153 797.423 250.373 795.389 251.268C793.397 252.122 791.058 252.549 788.374 252.549ZM817.223 223.147C818.321 221.52 819.825 220.199 821.737 219.182C823.689 218.165 825.905 217.657 828.386 217.657C831.273 217.657 833.876 218.369 836.194 219.792C838.552 221.215 840.403 223.249 841.745 225.892C843.127 228.495 843.819 231.524 843.819 234.981C843.819 238.438 843.127 241.508 841.745 244.192C840.403 246.835 838.552 248.889 836.194 250.353C833.876 251.817 831.273 252.549 828.386 252.549C825.864 252.549 823.648 252.061 821.737 251.085C819.866 250.068 818.361 248.767 817.223 247.181V252H808.683V206.86H817.223V223.147ZM835.096 234.981C835.096 232.948 834.669 231.199 833.815 229.735C833.001 228.23 831.903 227.092 830.521 226.319C829.179 225.546 827.715 225.16 826.129 225.16C824.583 225.16 823.119 225.567 821.737 226.38C820.395 227.153 819.297 228.291 818.443 229.796C817.629 231.301 817.223 233.07 817.223 235.103C817.223 237.136 817.629 238.905 818.443 240.41C819.297 241.915 820.395 243.074 821.737 243.887C823.119 244.66 824.583 245.046 826.129 245.046C827.715 245.046 829.179 244.639 830.521 243.826C831.903 243.013 833.001 241.854 833.815 240.349C834.669 238.844 835.096 237.055 835.096 234.981ZM854.355 214.18C852.851 214.18 851.59 213.712 850.573 212.777C849.597 211.801 849.109 210.601 849.109 209.178C849.109 207.755 849.597 206.575 850.573 205.64C851.59 204.664 852.851 204.176 854.355 204.176C855.86 204.176 857.1 204.664 858.076 205.64C859.093 206.575 859.601 207.755 859.601 209.178C859.601 210.601 859.093 211.801 858.076 212.777C857.1 213.712 855.86 214.18 854.355 214.18ZM858.564 218.206V252H850.024V218.206H858.564ZM880.239 217.657C882.76 217.657 884.977 218.165 886.888 219.182C888.799 220.158 890.304 221.439 891.402 223.025V218.206H900.003V252.244C900.003 255.375 899.373 258.161 898.112 260.601C896.851 263.082 894.96 265.034 892.439 266.457C889.918 267.921 886.868 268.653 883.289 268.653C878.49 268.653 874.546 267.535 871.455 265.298C868.405 263.061 866.677 260.011 866.27 256.148H874.749C875.196 257.693 876.152 258.913 877.616 259.808C879.121 260.743 880.93 261.211 883.045 261.211C885.526 261.211 887.539 260.459 889.084 258.954C890.629 257.49 891.402 255.253 891.402 252.244V246.998C890.304 248.584 888.779 249.906 886.827 250.963C884.916 252.02 882.72 252.549 880.239 252.549C877.392 252.549 874.79 251.817 872.431 250.353C870.072 248.889 868.202 246.835 866.819 244.192C865.477 241.508 864.806 238.438 864.806 234.981C864.806 231.565 865.477 228.535 866.819 225.892C868.202 223.249 870.052 221.215 872.37 219.792C874.729 218.369 877.352 217.657 880.239 217.657ZM891.402 235.103C891.402 233.029 890.995 231.26 890.182 229.796C889.369 228.291 888.271 227.153 886.888 226.38C885.505 225.567 884.021 225.16 882.435 225.16C880.849 225.16 879.385 225.546 878.043 226.319C876.701 227.092 875.603 228.23 874.749 229.735C873.936 231.199 873.529 232.948 873.529 234.981C873.529 237.014 873.936 238.804 874.749 240.349C875.603 241.854 876.701 243.013 878.043 243.826C879.426 244.639 880.89 245.046 882.435 245.046C884.021 245.046 885.505 244.66 886.888 243.887C888.271 243.074 889.369 241.935 890.182 240.471C890.995 238.966 891.402 237.177 891.402 235.103Z" fill="white"/>
<path d="M912.126 252.427C910.58 252.427 909.299 251.959 908.283 251.024C907.307 250.048 906.819 248.848 906.819 247.425C906.819 246.002 907.307 244.822 908.283 243.887C909.299 242.911 910.58 242.423 912.126 242.423C913.63 242.423 914.871 242.911 915.847 243.887C916.823 244.822 917.311 246.002 917.311 247.425C917.311 248.848 916.823 250.048 915.847 251.024C914.871 251.959 913.63 252.427 912.126 252.427Z" fill="#FFD803"/>
<path d="M442.96 301.112C442.181 301.112 441.477 300.979 440.848 300.712C440.229 300.445 439.739 300.061 439.376 299.56C439.013 299.059 438.827 298.467 438.816 297.784H441.216C441.248 298.243 441.408 298.605 441.696 298.872C441.995 299.139 442.4 299.272 442.912 299.272C443.435 299.272 443.845 299.149 444.144 298.904C444.443 298.648 444.592 298.317 444.592 297.912C444.592 297.581 444.491 297.309 444.288 297.096C444.085 296.883 443.829 296.717 443.52 296.6C443.221 296.472 442.805 296.333 442.272 296.184C441.547 295.971 440.955 295.763 440.496 295.56C440.048 295.347 439.659 295.032 439.328 294.616C439.008 294.189 438.848 293.624 438.848 292.92C438.848 292.259 439.013 291.683 439.344 291.192C439.675 290.701 440.139 290.328 440.736 290.072C441.333 289.805 442.016 289.672 442.784 289.672C443.936 289.672 444.869 289.955 445.584 290.52C446.309 291.075 446.709 291.853 446.784 292.856H444.32C444.299 292.472 444.133 292.157 443.824 291.912C443.525 291.656 443.125 291.528 442.624 291.528C442.187 291.528 441.835 291.64 441.568 291.864C441.312 292.088 441.184 292.413 441.184 292.84C441.184 293.139 441.28 293.389 441.472 293.592C441.675 293.784 441.92 293.944 442.208 294.072C442.507 294.189 442.923 294.328 443.456 294.488C444.181 294.701 444.773 294.915 445.232 295.128C445.691 295.341 446.085 295.661 446.416 296.088C446.747 296.515 446.912 297.075 446.912 297.768C446.912 298.365 446.757 298.92 446.448 299.432C446.139 299.944 445.685 300.355 445.088 300.664C444.491 300.963 443.781 301.112 442.96 301.112ZM452.79 301.144C451.937 301.144 451.169 300.957 450.486 300.584C449.803 300.2 449.265 299.661 448.87 298.968C448.486 298.275 448.294 297.475 448.294 296.568C448.294 295.661 448.491 294.861 448.886 294.168C449.291 293.475 449.841 292.941 450.534 292.568C451.227 292.184 452.001 291.992 452.854 291.992C453.707 291.992 454.481 292.184 455.174 292.568C455.867 292.941 456.411 293.475 456.806 294.168C457.211 294.861 457.414 295.661 457.414 296.568C457.414 297.475 457.206 298.275 456.79 298.968C456.385 299.661 455.83 300.2 455.126 300.584C454.433 300.957 453.654 301.144 452.79 301.144ZM452.79 299.192C453.195 299.192 453.574 299.096 453.926 298.904C454.289 298.701 454.577 298.403 454.79 298.008C455.003 297.613 455.11 297.133 455.11 296.568C455.11 295.725 454.886 295.08 454.438 294.632C454.001 294.173 453.462 293.944 452.822 293.944C452.182 293.944 451.643 294.173 451.206 294.632C450.779 295.08 450.566 295.725 450.566 296.568C450.566 297.411 450.774 298.061 451.19 298.52C451.617 298.968 452.15 299.192 452.79 299.192ZM463.121 293.976H461.569V301H459.297V293.976H458.289V292.136H459.297V291.688C459.297 290.6 459.606 289.8 460.225 289.288C460.844 288.776 461.777 288.536 463.025 288.568V290.456C462.481 290.445 462.102 290.536 461.889 290.728C461.676 290.92 461.569 291.267 461.569 291.768V292.136H463.121V293.976ZM467.181 293.976V298.264C467.181 298.563 467.25 298.781 467.389 298.92C467.538 299.048 467.783 299.112 468.125 299.112H469.165V301H467.757C465.869 301 464.925 300.083 464.925 298.248V293.976H463.869V292.136H464.925V289.944H467.181V292.136H469.165V293.976H467.181ZM483.064 292.136L480.472 301H478.056L476.44 294.808L474.824 301H472.392L469.784 292.136H472.056L473.624 298.888L475.32 292.136H477.688L479.352 298.872L480.92 292.136H483.064ZM483.7 296.536C483.7 295.64 483.876 294.845 484.228 294.152C484.591 293.459 485.076 292.925 485.684 292.552C486.303 292.179 486.991 291.992 487.748 291.992C488.409 291.992 488.985 292.125 489.476 292.392C489.977 292.659 490.377 292.995 490.676 293.4V292.136H492.932V301H490.676V299.704C490.388 300.12 489.988 300.467 489.476 300.744C488.975 301.011 488.393 301.144 487.732 301.144C486.985 301.144 486.303 300.952 485.684 300.568C485.076 300.184 484.591 299.645 484.228 298.952C483.876 298.248 483.7 297.443 483.7 296.536ZM490.676 296.568C490.676 296.024 490.569 295.56 490.356 295.176C490.143 294.781 489.855 294.483 489.492 294.28C489.129 294.067 488.74 293.96 488.324 293.96C487.908 293.96 487.524 294.061 487.172 294.264C486.82 294.467 486.532 294.765 486.308 295.16C486.095 295.544 485.988 296.003 485.988 296.536C485.988 297.069 486.095 297.539 486.308 297.944C486.532 298.339 486.82 298.643 487.172 298.856C487.535 299.069 487.919 299.176 488.324 299.176C488.74 299.176 489.129 299.075 489.492 298.872C489.855 298.659 490.143 298.36 490.356 297.976C490.569 297.581 490.676 297.112 490.676 296.568ZM497.36 293.512C497.648 293.043 498.021 292.675 498.48 292.408C498.949 292.141 499.482 292.008 500.08 292.008V294.36H499.488C498.784 294.36 498.25 294.525 497.888 294.856C497.536 295.187 497.36 295.763 497.36 296.584V301H495.12V292.136H497.36V293.512ZM509.828 296.376C509.828 296.696 509.807 296.984 509.764 297.24H503.284C503.338 297.88 503.562 298.381 503.956 298.744C504.351 299.107 504.836 299.288 505.412 299.288C506.244 299.288 506.836 298.931 507.188 298.216H509.604C509.348 299.069 508.858 299.773 508.132 300.328C507.407 300.872 506.516 301.144 505.46 301.144C504.607 301.144 503.839 300.957 503.156 300.584C502.484 300.2 501.956 299.661 501.572 298.968C501.199 298.275 501.012 297.475 501.012 296.568C501.012 295.651 501.199 294.845 501.572 294.152C501.946 293.459 502.468 292.925 503.14 292.552C503.812 292.179 504.586 291.992 505.46 291.992C506.303 291.992 507.055 292.173 507.716 292.536C508.388 292.899 508.906 293.416 509.268 294.088C509.642 294.749 509.828 295.512 509.828 296.376ZM507.508 295.736C507.498 295.16 507.29 294.701 506.884 294.36C506.479 294.008 505.983 293.832 505.396 293.832C504.842 293.832 504.372 294.003 503.988 294.344C503.615 294.675 503.386 295.139 503.3 295.736H507.508ZM519.18 289.832C520.353 289.832 521.383 290.061 522.268 290.52C523.164 290.979 523.852 291.635 524.332 292.488C524.823 293.331 525.068 294.312 525.068 295.432C525.068 296.552 524.823 297.533 524.332 298.376C523.852 299.208 523.164 299.853 522.268 300.312C521.383 300.771 520.353 301 519.18 301H515.276V289.832H519.18ZM519.1 299.096C520.273 299.096 521.18 298.776 521.82 298.136C522.46 297.496 522.78 296.595 522.78 295.432C522.78 294.269 522.46 293.363 521.82 292.712C521.18 292.051 520.273 291.72 519.1 291.72H517.516V299.096H519.1ZM534.985 296.376C534.985 296.696 534.963 296.984 534.921 297.24H528.441C528.494 297.88 528.718 298.381 529.113 298.744C529.507 299.107 529.993 299.288 530.569 299.288C531.401 299.288 531.993 298.931 532.345 298.216H534.761C534.505 299.069 534.014 299.773 533.289 300.328C532.563 300.872 531.673 301.144 530.617 301.144C529.763 301.144 528.995 300.957 528.313 300.584C527.641 300.2 527.113 299.661 526.729 298.968C526.355 298.275 526.169 297.475 526.169 296.568C526.169 295.651 526.355 294.845 526.729 294.152C527.102 293.459 527.625 292.925 528.297 292.552C528.969 292.179 529.742 291.992 530.617 291.992C531.459 291.992 532.211 292.173 532.873 292.536C533.545 292.899 534.062 293.416 534.425 294.088C534.798 294.749 534.985 295.512 534.985 296.376ZM532.665 295.736C532.654 295.16 532.446 294.701 532.041 294.36C531.635 294.008 531.139 293.832 530.553 293.832C529.998 293.832 529.529 294.003 529.145 294.344C528.771 294.675 528.542 295.139 528.457 295.736H532.665ZM540.316 298.936L542.556 292.136H544.94L541.66 301H538.94L535.676 292.136H538.076L540.316 298.936ZM554.438 296.376C554.438 296.696 554.416 296.984 554.374 297.24H547.894C547.947 297.88 548.171 298.381 548.566 298.744C548.96 299.107 549.446 299.288 550.022 299.288C550.854 299.288 551.446 298.931 551.798 298.216H554.214C553.958 299.069 553.467 299.773 552.742 300.328C552.016 300.872 551.126 301.144 550.07 301.144C549.216 301.144 548.448 300.957 547.766 300.584C547.094 300.2 546.566 299.661 546.182 298.968C545.808 298.275 545.622 297.475 545.622 296.568C545.622 295.651 545.808 294.845 546.182 294.152C546.555 293.459 547.078 292.925 547.75 292.552C548.422 292.179 549.195 291.992 550.07 291.992C550.912 291.992 551.664 292.173 552.326 292.536C552.998 292.899 553.515 293.416 553.878 294.088C554.251 294.749 554.438 295.512 554.438 296.376ZM552.118 295.736C552.107 295.16 551.899 294.701 551.494 294.36C551.088 294.008 550.592 293.832 550.006 293.832C549.451 293.832 548.982 294.003 548.598 294.344C548.224 294.675 547.995 295.139 547.91 295.736H552.118ZM558.313 289.16V301H556.073V289.16H558.313ZM564.462 301.144C563.609 301.144 562.841 300.957 562.158 300.584C561.475 300.2 560.937 299.661 560.542 298.968C560.158 298.275 559.966 297.475 559.966 296.568C559.966 295.661 560.163 294.861 560.558 294.168C560.963 293.475 561.513 292.941 562.206 292.568C562.899 292.184 563.673 291.992 564.526 291.992C565.379 291.992 566.153 292.184 566.846 292.568C567.539 292.941 568.083 293.475 568.478 294.168C568.883 294.861 569.086 295.661 569.086 296.568C569.086 297.475 568.878 298.275 568.462 298.968C568.057 299.661 567.502 300.2 566.798 300.584C566.105 300.957 565.326 301.144 564.462 301.144ZM564.462 299.192C564.867 299.192 565.246 299.096 565.598 298.904C565.961 298.701 566.249 298.403 566.462 298.008C566.675 297.613 566.782 297.133 566.782 296.568C566.782 295.725 566.558 295.08 566.11 294.632C565.673 294.173 565.134 293.944 564.494 293.944C563.854 293.944 563.315 294.173 562.878 294.632C562.451 295.08 562.238 295.725 562.238 296.568C562.238 297.411 562.446 298.061 562.862 298.52C563.289 298.968 563.822 299.192 564.462 299.192ZM572.969 293.416C573.257 293.011 573.652 292.675 574.153 292.408C574.665 292.131 575.246 291.992 575.897 291.992C576.654 291.992 577.337 292.179 577.945 292.552C578.564 292.925 579.049 293.459 579.401 294.152C579.764 294.835 579.945 295.629 579.945 296.536C579.945 297.443 579.764 298.248 579.401 298.952C579.049 299.645 578.564 300.184 577.945 300.568C577.337 300.952 576.654 301.144 575.897 301.144C575.246 301.144 574.67 301.011 574.169 300.744C573.678 300.477 573.278 300.141 572.969 299.736V305.224H570.729V292.136H572.969V293.416ZM577.657 296.536C577.657 296.003 577.545 295.544 577.321 295.16C577.108 294.765 576.82 294.467 576.457 294.264C576.105 294.061 575.721 293.96 575.305 293.96C574.9 293.96 574.516 294.067 574.153 294.28C573.801 294.483 573.513 294.781 573.289 295.176C573.076 295.571 572.969 296.035 572.969 296.568C572.969 297.101 573.076 297.565 573.289 297.96C573.513 298.355 573.801 298.659 574.153 298.872C574.516 299.075 574.9 299.176 575.305 299.176C575.721 299.176 576.105 299.069 576.457 298.856C576.82 298.643 577.108 298.339 577.321 297.944C577.545 297.549 577.657 297.08 577.657 296.536ZM589.813 296.376C589.813 296.696 589.791 296.984 589.749 297.24H583.269C583.322 297.88 583.546 298.381 583.941 298.744C584.335 299.107 584.821 299.288 585.397 299.288C586.229 299.288 586.821 298.931 587.173 298.216H589.589C589.333 299.069 588.842 299.773 588.117 300.328C587.391 300.872 586.501 301.144 585.445 301.144C584.591 301.144 583.823 300.957 583.141 300.584C582.469 300.2 581.941 299.661 581.557 298.968C581.183 298.275 580.997 297.475 580.997 296.568C580.997 295.651 581.183 294.845 581.557 294.152C581.93 293.459 582.453 292.925 583.125 292.552C583.797 292.179 584.57 291.992 585.445 291.992C586.287 291.992 587.039 292.173 587.701 292.536C588.373 292.899 588.89 293.416 589.253 294.088C589.626 294.749 589.813 295.512 589.813 296.376ZM587.493 295.736C587.482 295.16 587.274 294.701 586.869 294.36C586.463 294.008 585.967 293.832 585.381 293.832C584.826 293.832 584.357 294.003 583.973 294.344C583.599 294.675 583.37 295.139 583.285 295.736H587.493ZM593.688 293.512C593.976 293.043 594.349 292.675 594.808 292.408C595.277 292.141 595.81 292.008 596.408 292.008V294.36H595.816C595.112 294.36 594.578 294.525 594.216 294.856C593.864 295.187 593.688 295.763 593.688 296.584V301H591.448V292.136H593.688V293.512ZM610.87 301L609.414 299.528C608.87 300.093 608.289 300.515 607.67 300.792C607.051 301.059 606.353 301.192 605.574 301.192C604.806 301.192 604.123 301.053 603.526 300.776C602.939 300.499 602.481 300.104 602.15 299.592C601.83 299.08 601.67 298.483 601.67 297.8C601.67 297.021 601.889 296.339 602.326 295.752C602.774 295.155 603.43 294.685 604.294 294.344C603.953 293.939 603.707 293.565 603.558 293.224C603.409 292.883 603.334 292.509 603.334 292.104C603.334 291.635 603.451 291.213 603.686 290.84C603.931 290.456 604.278 290.157 604.726 289.944C605.174 289.731 605.691 289.624 606.278 289.624C606.854 289.624 607.355 289.736 607.782 289.96C608.209 290.184 608.529 290.499 608.742 290.904C608.955 291.299 609.051 291.741 609.03 292.232H607.574C607.585 291.795 607.462 291.453 607.206 291.208C606.95 290.952 606.619 290.824 606.214 290.824C605.787 290.824 605.441 290.947 605.174 291.192C604.918 291.427 604.79 291.731 604.79 292.104C604.79 292.424 604.875 292.733 605.046 293.032C605.227 293.331 605.526 293.699 605.942 294.136L609.27 297.48L609.558 297.032L610.646 295.208H612.214L610.902 297.48C610.721 297.8 610.507 298.136 610.262 298.488L612.774 301H610.87ZM605.574 299.944C606.15 299.944 606.667 299.832 607.126 299.608C607.595 299.384 608.038 299.037 608.454 298.568L605.174 295.272C603.809 295.795 603.126 296.621 603.126 297.752C603.126 298.381 603.35 298.904 603.798 299.32C604.257 299.736 604.849 299.944 605.574 299.944ZM619.828 289.848V296.904C619.828 297.896 620.068 298.632 620.548 299.112C621.039 299.592 621.716 299.832 622.58 299.832C623.433 299.832 624.1 299.592 624.58 299.112C625.071 298.632 625.316 297.896 625.316 296.904V289.848H626.772V296.888C626.772 297.816 626.585 298.6 626.212 299.24C625.839 299.869 625.332 300.339 624.692 300.648C624.063 300.957 623.353 301.112 622.564 301.112C621.775 301.112 621.06 300.957 620.42 300.648C619.791 300.339 619.289 299.869 618.916 299.24C618.553 298.6 618.372 297.816 618.372 296.888V289.848H619.828ZM630.657 289.848V301H629.201V289.848H630.657ZM640.876 289.848C642.092 289.848 643.143 290.077 644.028 290.536C644.924 290.984 645.607 291.629 646.076 292.472C646.556 293.315 646.796 294.307 646.796 295.448C646.796 296.589 646.556 297.581 646.076 298.424C645.607 299.256 644.924 299.896 644.028 300.344C643.143 300.781 642.092 301 640.876 301H637.404V289.848H640.876ZM640.876 299.8C642.316 299.8 643.415 299.421 644.172 298.664C644.929 297.896 645.308 296.824 645.308 295.448C645.308 294.061 644.924 292.979 644.156 292.2C643.399 291.421 642.305 291.032 640.876 291.032H638.86V299.8H640.876ZM656.716 296.28C656.716 296.557 656.7 296.851 656.668 297.16H649.66C649.714 298.024 650.007 298.701 650.54 299.192C651.084 299.672 651.74 299.912 652.508 299.912C653.138 299.912 653.66 299.768 654.076 299.48C654.503 299.181 654.802 298.787 654.972 298.296H656.54C656.306 299.139 655.836 299.827 655.132 300.36C654.428 300.883 653.554 301.144 652.508 301.144C651.676 301.144 650.93 300.957 650.268 300.584C649.618 300.211 649.106 299.683 648.732 299C648.359 298.307 648.172 297.507 648.172 296.6C648.172 295.693 648.354 294.899 648.716 294.216C649.079 293.533 649.586 293.011 650.236 292.648C650.898 292.275 651.655 292.088 652.508 292.088C653.34 292.088 654.076 292.269 654.716 292.632C655.356 292.995 655.847 293.496 656.188 294.136C656.54 294.765 656.716 295.48 656.716 296.28ZM655.212 295.976C655.212 295.421 655.09 294.947 654.844 294.552C654.599 294.147 654.263 293.843 653.836 293.64C653.42 293.427 652.956 293.32 652.444 293.32C651.708 293.32 651.079 293.555 650.556 294.024C650.044 294.493 649.751 295.144 649.676 295.976H655.212ZM661.742 301.144C661.07 301.144 660.468 301.032 659.934 300.808C659.401 300.573 658.98 300.253 658.67 299.848C658.361 299.432 658.19 298.957 658.158 298.424H659.662C659.705 298.861 659.908 299.219 660.27 299.496C660.644 299.773 661.129 299.912 661.726 299.912C662.281 299.912 662.718 299.789 663.038 299.544C663.358 299.299 663.518 298.989 663.518 298.616C663.518 298.232 663.348 297.949 663.006 297.768C662.665 297.576 662.137 297.389 661.422 297.208C660.772 297.037 660.238 296.867 659.822 296.696C659.417 296.515 659.065 296.253 658.766 295.912C658.478 295.56 658.334 295.101 658.334 294.536C658.334 294.088 658.468 293.677 658.734 293.304C659.001 292.931 659.38 292.637 659.87 292.424C660.361 292.2 660.921 292.088 661.55 292.088C662.521 292.088 663.305 292.333 663.902 292.824C664.5 293.315 664.82 293.987 664.862 294.84H663.406C663.374 294.381 663.188 294.013 662.846 293.736C662.516 293.459 662.068 293.32 661.502 293.32C660.98 293.32 660.564 293.432 660.254 293.656C659.945 293.88 659.79 294.173 659.79 294.536C659.79 294.824 659.881 295.064 660.062 295.256C660.254 295.437 660.489 295.587 660.766 295.704C661.054 295.811 661.449 295.933 661.95 296.072C662.58 296.243 663.092 296.413 663.486 296.584C663.881 296.744 664.217 296.989 664.494 297.32C664.782 297.651 664.932 298.083 664.942 298.616C664.942 299.096 664.809 299.528 664.542 299.912C664.276 300.296 663.897 300.6 663.406 300.824C662.926 301.037 662.372 301.144 661.742 301.144ZM667.75 290.808C667.472 290.808 667.238 290.712 667.046 290.52C666.854 290.328 666.758 290.093 666.758 289.816C666.758 289.539 666.854 289.304 667.046 289.112C667.238 288.92 667.472 288.824 667.75 288.824C668.016 288.824 668.24 288.92 668.422 289.112C668.614 289.304 668.71 289.539 668.71 289.816C668.71 290.093 668.614 290.328 668.422 290.52C668.24 290.712 668.016 290.808 667.75 290.808ZM668.454 292.232V301H666.998V292.232H668.454ZM674.551 292.088C675.308 292.088 675.97 292.253 676.535 292.584C677.111 292.915 677.538 293.331 677.815 293.832V292.232H679.287V301.192C679.287 301.992 679.116 302.701 678.775 303.32C678.434 303.949 677.943 304.44 677.303 304.792C676.674 305.144 675.938 305.32 675.095 305.32C673.943 305.32 672.983 305.048 672.215 304.504C671.447 303.96 670.994 303.219 670.855 302.28H672.295C672.455 302.813 672.786 303.24 673.287 303.56C673.788 303.891 674.391 304.056 675.095 304.056C675.895 304.056 676.546 303.805 677.047 303.304C677.559 302.803 677.815 302.099 677.815 301.192V299.352C677.527 299.864 677.1 300.291 676.535 300.632C675.97 300.973 675.308 301.144 674.551 301.144C673.772 301.144 673.063 300.952 672.423 300.568C671.794 300.184 671.298 299.645 670.935 298.952C670.572 298.259 670.391 297.469 670.391 296.584C670.391 295.688 670.572 294.904 670.935 294.232C671.298 293.549 671.794 293.021 672.423 292.648C673.063 292.275 673.772 292.088 674.551 292.088ZM677.815 296.6C677.815 295.939 677.682 295.363 677.415 294.872C677.148 294.381 676.786 294.008 676.327 293.752C675.879 293.485 675.383 293.352 674.839 293.352C674.295 293.352 673.799 293.48 673.351 293.736C672.903 293.992 672.546 294.365 672.279 294.856C672.012 295.347 671.879 295.923 671.879 296.584C671.879 297.256 672.012 297.843 672.279 298.344C672.546 298.835 672.903 299.213 673.351 299.48C673.799 299.736 674.295 299.864 674.839 299.864C675.383 299.864 675.879 299.736 676.327 299.48C676.786 299.213 677.148 298.835 677.415 298.344C677.682 297.843 677.815 297.261 677.815 296.6ZM686.02 292.072C687.086 292.072 687.95 292.397 688.612 293.048C689.273 293.688 689.604 294.616 689.604 295.832V301H688.164V296.04C688.164 295.165 687.945 294.499 687.508 294.04C687.07 293.571 686.473 293.336 685.716 293.336C684.948 293.336 684.334 293.576 683.876 294.056C683.428 294.536 683.204 295.235 683.204 296.152V301H681.748V292.232H683.204V293.48C683.492 293.032 683.881 292.685 684.372 292.44C684.873 292.195 685.422 292.072 686.02 292.072ZM699.982 296.28C699.982 296.557 699.966 296.851 699.934 297.16H692.926C692.979 298.024 693.273 298.701 693.806 299.192C694.35 299.672 695.006 299.912 695.774 299.912C696.403 299.912 696.926 299.768 697.342 299.48C697.769 299.181 698.067 298.787 698.238 298.296H699.806C699.571 299.139 699.102 299.827 698.398 300.36C697.694 300.883 696.819 301.144 695.774 301.144C694.942 301.144 694.195 300.957 693.534 300.584C692.883 300.211 692.371 299.683 691.998 299C691.625 298.307 691.438 297.507 691.438 296.6C691.438 295.693 691.619 294.899 691.982 294.216C692.345 293.533 692.851 293.011 693.502 292.648C694.163 292.275 694.921 292.088 695.774 292.088C696.606 292.088 697.342 292.269 697.982 292.632C698.622 292.995 699.113 293.496 699.454 294.136C699.806 294.765 699.982 295.48 699.982 296.28ZM698.478 295.976C698.478 295.421 698.355 294.947 698.11 294.552C697.865 294.147 697.529 293.843 697.102 293.64C696.686 293.427 696.222 293.32 695.71 293.32C694.974 293.32 694.345 293.555 693.822 294.024C693.31 294.493 693.017 295.144 692.942 295.976H698.478ZM703.36 293.656C703.616 293.155 703.979 292.765 704.448 292.488C704.928 292.211 705.509 292.072 706.192 292.072V293.576H705.808C704.176 293.576 703.36 294.461 703.36 296.232V301H701.904V292.232H703.36V293.656Z" fill="white" fill-opacity="0.5"/>
<line x1="739.5" y1="287" x2="739.5" y2="303" stroke="white" stroke-opacity="0.5"/>
<path d="M780.632 290.504C781.869 290.504 782.941 290.733 783.848 291.192C784.755 291.651 785.448 292.296 785.928 293.128C786.419 293.96 786.664 294.92 786.664 296.008C786.664 296.883 786.509 297.709 786.2 298.488C785.901 299.267 785.464 299.896 784.888 300.376C784.312 300.856 783.629 301.096 782.84 301.096C782.285 301.096 781.837 300.984 781.496 300.76C781.155 300.525 780.936 300.195 780.84 299.768C780.531 300.184 780.131 300.515 779.64 300.76C779.149 300.995 778.632 301.112 778.088 301.112C777.277 301.112 776.643 300.872 776.184 300.392C775.725 299.901 775.496 299.235 775.496 298.392C775.496 297.592 775.661 296.845 775.992 296.152C776.323 295.459 776.781 294.904 777.368 294.488C777.955 294.061 778.616 293.848 779.352 293.848C780.269 293.848 780.899 294.168 781.24 294.808L781.384 293.976H783.256L782.504 298.296C782.472 298.499 782.456 298.685 782.456 298.856C782.456 299.112 782.509 299.304 782.616 299.432C782.723 299.56 782.904 299.624 783.16 299.624C783.544 299.624 783.864 299.443 784.12 299.08C784.387 298.717 784.584 298.264 784.712 297.72C784.851 297.176 784.92 296.632 784.92 296.088C784.92 294.797 784.525 293.8 783.736 293.096C782.947 292.381 781.832 292.024 780.392 292.024C779.165 292.024 778.056 292.323 777.064 292.92C776.072 293.507 775.293 294.312 774.728 295.336C774.173 296.349 773.896 297.48 773.896 298.728C773.896 300.051 774.285 301.069 775.064 301.784C775.853 302.499 776.968 302.856 778.408 302.856C779.443 302.856 780.355 302.669 781.144 302.296L781.464 303.768C780.451 304.195 779.325 304.408 778.088 304.408C776.893 304.408 775.848 304.179 774.952 303.72C774.056 303.272 773.363 302.632 772.872 301.8C772.381 300.968 772.136 300.003 772.136 298.904C772.136 297.336 772.499 295.912 773.224 294.632C773.96 293.352 774.973 292.344 776.264 291.608C777.565 290.872 779.021 290.504 780.632 290.504ZM778.792 299.448C779.176 299.448 779.528 299.336 779.848 299.112C780.168 298.888 780.419 298.589 780.6 298.216C780.792 297.843 780.888 297.443 780.888 297.016C780.888 296.568 780.765 296.205 780.52 295.928C780.275 295.651 779.933 295.512 779.496 295.512C779.101 295.512 778.755 295.635 778.456 295.88C778.157 296.115 777.923 296.424 777.752 296.808C777.592 297.192 777.512 297.597 777.512 298.024C777.512 298.461 777.619 298.808 777.832 299.064C778.045 299.32 778.365 299.448 778.792 299.448ZM799.589 292.072C800.271 292.072 800.879 292.216 801.413 292.504C801.946 292.781 802.367 293.203 802.677 293.768C802.986 294.333 803.141 295.021 803.141 295.832V301H801.701V296.04C801.701 295.165 801.482 294.499 801.045 294.04C800.618 293.571 800.037 293.336 799.301 293.336C798.543 293.336 797.941 293.581 797.493 294.072C797.045 294.552 796.821 295.251 796.821 296.168V301H795.381V296.04C795.381 295.165 795.162 294.499 794.725 294.04C794.298 293.571 793.717 293.336 792.981 293.336C792.223 293.336 791.621 293.581 791.173 294.072C790.725 294.552 790.501 295.251 790.501 296.168V301H789.045V292.232H790.501V293.496C790.789 293.037 791.173 292.685 791.653 292.44C792.143 292.195 792.682 292.072 793.269 292.072C794.005 292.072 794.655 292.237 795.221 292.568C795.786 292.899 796.207 293.384 796.485 294.024C796.73 293.405 797.135 292.925 797.701 292.584C798.266 292.243 798.895 292.072 799.589 292.072ZM806.985 293.656C807.241 293.155 807.604 292.765 808.073 292.488C808.553 292.211 809.134 292.072 809.817 292.072V293.576H809.433C807.801 293.576 806.985 294.461 806.985 296.232V301H805.529V292.232H806.985V293.656ZM819.498 296.28C819.498 296.557 819.482 296.851 819.45 297.16H812.442C812.495 298.024 812.788 298.701 813.322 299.192C813.866 299.672 814.522 299.912 815.29 299.912C815.919 299.912 816.442 299.768 816.858 299.48C817.284 299.181 817.583 298.787 817.754 298.296H819.322C819.087 299.139 818.618 299.827 817.914 300.36C817.21 300.883 816.335 301.144 815.29 301.144C814.458 301.144 813.711 300.957 813.05 300.584C812.399 300.211 811.887 299.683 811.514 299C811.14 298.307 810.954 297.507 810.954 296.6C810.954 295.693 811.135 294.899 811.498 294.216C811.86 293.533 812.367 293.011 813.018 292.648C813.679 292.275 814.436 292.088 815.29 292.088C816.122 292.088 816.858 292.269 817.498 292.632C818.138 292.995 818.628 293.496 818.97 294.136C819.322 294.765 819.498 295.48 819.498 296.28ZM817.994 295.976C817.994 295.421 817.871 294.947 817.626 294.552C817.38 294.147 817.044 293.843 816.618 293.64C816.202 293.427 815.738 293.32 815.226 293.32C814.49 293.32 813.86 293.555 813.338 294.024C812.826 294.493 812.532 295.144 812.458 295.976H817.994ZM820.876 296.584C820.876 295.688 821.057 294.904 821.42 294.232C821.782 293.549 822.278 293.021 822.908 292.648C823.548 292.275 824.257 292.088 825.036 292.088C825.804 292.088 826.47 292.253 827.036 292.584C827.601 292.915 828.022 293.331 828.3 293.832V292.232H829.772V301H828.3V299.368C828.012 299.88 827.58 300.307 827.004 300.648C826.438 300.979 825.777 301.144 825.02 301.144C824.241 301.144 823.537 300.952 822.908 300.568C822.278 300.184 821.782 299.645 821.42 298.952C821.057 298.259 820.876 297.469 820.876 296.584ZM828.3 296.6C828.3 295.939 828.166 295.363 827.9 294.872C827.633 294.381 827.27 294.008 826.812 293.752C826.364 293.485 825.868 293.352 825.324 293.352C824.78 293.352 824.284 293.48 823.836 293.736C823.388 293.992 823.03 294.365 822.764 294.856C822.497 295.347 822.364 295.923 822.364 296.584C822.364 297.256 822.497 297.843 822.764 298.344C823.03 298.835 823.388 299.213 823.836 299.48C824.284 299.736 824.78 299.864 825.324 299.864C825.868 299.864 826.364 299.736 826.812 299.48C827.27 299.213 827.633 298.835 827.9 298.344C828.166 297.843 828.3 297.261 828.3 296.6ZM833.688 293.656C833.944 293.155 834.307 292.765 834.776 292.488C835.256 292.211 835.837 292.072 836.52 292.072V293.576H836.136C834.504 293.576 833.688 294.461 833.688 296.232V301H832.232V292.232H833.688V293.656ZM841.305 301.144C840.633 301.144 840.03 301.032 839.497 300.808C838.963 300.573 838.542 300.253 838.233 299.848C837.923 299.432 837.753 298.957 837.721 298.424H839.225C839.267 298.861 839.47 299.219 839.833 299.496C840.206 299.773 840.691 299.912 841.289 299.912C841.843 299.912 842.281 299.789 842.601 299.544C842.921 299.299 843.081 298.989 843.081 298.616C843.081 298.232 842.91 297.949 842.569 297.768C842.227 297.576 841.699 297.389 840.985 297.208C840.334 297.037 839.801 296.867 839.385 296.696C838.979 296.515 838.627 296.253 838.329 295.912C838.041 295.56 837.897 295.101 837.897 294.536C837.897 294.088 838.03 293.677 838.297 293.304C838.563 292.931 838.942 292.637 839.433 292.424C839.923 292.2 840.483 292.088 841.113 292.088C842.083 292.088 842.867 292.333 843.465 292.824C844.062 293.315 844.382 293.987 844.425 294.84H842.969C842.937 294.381 842.75 294.013 842.409 293.736C842.078 293.459 841.63 293.32 841.065 293.32C840.542 293.32 840.126 293.432 839.817 293.656C839.507 293.88 839.353 294.173 839.353 294.536C839.353 294.824 839.443 295.064 839.625 295.256C839.817 295.437 840.051 295.587 840.329 295.704C840.617 295.811 841.011 295.933 841.513 296.072C842.142 296.243 842.654 296.413 843.049 296.584C843.443 296.744 843.779 296.989 844.057 297.32C844.345 297.651 844.494 298.083 844.505 298.616C844.505 299.096 844.371 299.528 844.105 299.912C843.838 300.296 843.459 300.6 842.969 300.824C842.489 301.037 841.934 301.144 841.305 301.144ZM848.016 293.864C848.315 293.341 848.752 292.915 849.328 292.584C849.904 292.253 850.56 292.088 851.296 292.088C852.085 292.088 852.795 292.275 853.424 292.648C854.053 293.021 854.549 293.549 854.912 294.232C855.275 294.904 855.456 295.688 855.456 296.584C855.456 297.469 855.275 298.259 854.912 298.952C854.549 299.645 854.048 300.184 853.408 300.568C852.779 300.952 852.075 301.144 851.296 301.144C850.539 301.144 849.872 300.979 849.296 300.648C848.731 300.317 848.304 299.896 848.016 299.384V301H846.56V289.16H848.016V293.864ZM853.968 296.584C853.968 295.923 853.835 295.347 853.568 294.856C853.301 294.365 852.939 293.992 852.48 293.736C852.032 293.48 851.536 293.352 850.992 293.352C850.459 293.352 849.963 293.485 849.504 293.752C849.056 294.008 848.693 294.387 848.416 294.888C848.149 295.379 848.016 295.949 848.016 296.6C848.016 297.261 848.149 297.843 848.416 298.344C848.693 298.835 849.056 299.213 849.504 299.48C849.963 299.736 850.459 299.864 850.992 299.864C851.536 299.864 852.032 299.736 852.48 299.48C852.939 299.213 853.301 298.835 853.568 298.344C853.835 297.843 853.968 297.256 853.968 296.584ZM858.125 290.808C857.847 290.808 857.613 290.712 857.421 290.52C857.229 290.328 857.133 290.093 857.133 289.816C857.133 289.539 857.229 289.304 857.421 289.112C857.613 288.92 857.847 288.824 858.125 288.824C858.391 288.824 858.615 288.92 858.797 289.112C858.989 289.304 859.085 289.539 859.085 289.816C859.085 290.093 858.989 290.328 858.797 290.52C858.615 290.712 858.391 290.808 858.125 290.808ZM858.829 292.232V301H857.373V292.232H858.829ZM864.926 292.088C865.683 292.088 866.345 292.253 866.91 292.584C867.486 292.915 867.913 293.331 868.19 293.832V292.232H869.662V301.192C869.662 301.992 869.491 302.701 869.15 303.32C868.809 303.949 868.318 304.44 867.678 304.792C867.049 305.144 866.313 305.32 865.47 305.32C864.318 305.32 863.358 305.048 862.59 304.504C861.822 303.96 861.369 303.219 861.23 302.28H862.67C862.83 302.813 863.161 303.24 863.662 303.56C864.163 303.891 864.766 304.056 865.47 304.056C866.27 304.056 866.921 303.805 867.422 303.304C867.934 302.803 868.19 302.099 868.19 301.192V299.352C867.902 299.864 867.475 300.291 866.91 300.632C866.345 300.973 865.683 301.144 864.926 301.144C864.147 301.144 863.438 300.952 862.798 300.568C862.169 300.184 861.673 299.645 861.31 298.952C860.947 298.259 860.766 297.469 860.766 296.584C860.766 295.688 860.947 294.904 861.31 294.232C861.673 293.549 862.169 293.021 862.798 292.648C863.438 292.275 864.147 292.088 864.926 292.088ZM868.19 296.6C868.19 295.939 868.057 295.363 867.79 294.872C867.523 294.381 867.161 294.008 866.702 293.752C866.254 293.485 865.758 293.352 865.214 293.352C864.67 293.352 864.174 293.48 863.726 293.736C863.278 293.992 862.921 294.365 862.654 294.856C862.387 295.347 862.254 295.923 862.254 296.584C862.254 297.256 862.387 297.843 862.654 298.344C862.921 298.835 863.278 299.213 863.726 299.48C864.174 299.736 864.67 299.864 865.214 299.864C865.758 299.864 866.254 299.736 866.702 299.48C867.161 299.213 867.523 298.835 867.79 298.344C868.057 297.843 868.19 297.261 868.19 296.6Z" fill="white" fill-opacity="0.5"/>
<line x1="903.5" y1="287" x2="903.5" y2="303" stroke="white" stroke-opacity="0.5"/>
<path d="M947.112 292.008C948.2 292.008 949.075 292.344 949.736 293.016C950.408 293.677 950.744 294.605 950.744 295.8V301H948.504V296.104C948.504 295.411 948.328 294.883 947.976 294.52C947.624 294.147 947.144 293.96 946.536 293.96C945.928 293.96 945.443 294.147 945.08 294.52C944.728 294.883 944.552 295.411 944.552 296.104V301H942.312V296.104C942.312 295.411 942.136 294.883 941.784 294.52C941.432 294.147 940.952 293.96 940.344 293.96C939.725 293.96 939.235 294.147 938.872 294.52C938.52 294.883 938.344 295.411 938.344 296.104V301H936.104V292.136H938.344V293.208C938.632 292.835 939 292.541 939.448 292.328C939.907 292.115 940.408 292.008 940.952 292.008C941.645 292.008 942.264 292.157 942.808 292.456C943.352 292.744 943.773 293.16 944.072 293.704C944.36 293.192 944.776 292.781 945.32 292.472C945.875 292.163 946.472 292.008 947.112 292.008ZM955.11 293.512C955.398 293.043 955.771 292.675 956.23 292.408C956.699 292.141 957.232 292.008 957.83 292.008V294.36H957.238C956.534 294.36 956 294.525 955.638 294.856C955.286 295.187 955.11 295.763 955.11 296.584V301H952.87V292.136H955.11V293.512ZM967.578 296.376C967.578 296.696 967.557 296.984 967.514 297.24H961.034C961.088 297.88 961.312 298.381 961.706 298.744C962.101 299.107 962.586 299.288 963.162 299.288C963.994 299.288 964.586 298.931 964.938 298.216H967.354C967.098 299.069 966.608 299.773 965.882 300.328C965.157 300.872 964.266 301.144 963.21 301.144C962.357 301.144 961.589 300.957 960.906 300.584C960.234 300.2 959.706 299.661 959.322 298.968C958.949 298.275 958.762 297.475 958.762 296.568C958.762 295.651 958.949 294.845 959.322 294.152C959.696 293.459 960.218 292.925 960.89 292.552C961.562 292.179 962.336 291.992 963.21 291.992C964.053 291.992 964.805 292.173 965.466 292.536C966.138 292.899 966.656 293.416 967.018 294.088C967.392 294.749 967.578 295.512 967.578 296.376ZM965.258 295.736C965.248 295.16 965.04 294.701 964.634 294.36C964.229 294.008 963.733 293.832 963.146 293.832C962.592 293.832 962.122 294.003 961.738 294.344C961.365 294.675 961.136 295.139 961.05 295.736H965.258ZM968.637 296.536C968.637 295.64 968.813 294.845 969.165 294.152C969.528 293.459 970.013 292.925 970.621 292.552C971.24 292.179 971.928 291.992 972.685 291.992C973.347 291.992 973.923 292.125 974.413 292.392C974.915 292.659 975.315 292.995 975.613 293.4V292.136H977.869V301H975.613V299.704C975.325 300.12 974.925 300.467 974.413 300.744C973.912 301.011 973.331 301.144 972.669 301.144C971.923 301.144 971.24 300.952 970.621 300.568C970.013 300.184 969.528 299.645 969.165 298.952C968.813 298.248 968.637 297.443 968.637 296.536ZM975.613 296.568C975.613 296.024 975.507 295.56 975.293 295.176C975.08 294.781 974.792 294.483 974.429 294.28C974.067 294.067 973.677 293.96 973.261 293.96C972.845 293.96 972.461 294.061 972.109 294.264C971.757 294.467 971.469 294.765 971.245 295.16C971.032 295.544 970.925 296.003 970.925 296.536C970.925 297.069 971.032 297.539 971.245 297.944C971.469 298.339 971.757 298.643 972.109 298.856C972.472 299.069 972.856 299.176 973.261 299.176C973.677 299.176 974.067 299.075 974.429 298.872C974.792 298.659 975.08 298.36 975.293 297.976C975.507 297.581 975.613 297.112 975.613 296.568ZM982.297 293.512C982.585 293.043 982.958 292.675 983.417 292.408C983.886 292.141 984.42 292.008 985.017 292.008V294.36H984.425C983.721 294.36 983.188 294.525 982.825 294.856C982.473 295.187 982.297 295.763 982.297 296.584V301H980.057V292.136H982.297V293.512ZM989.918 301.144C989.193 301.144 988.542 301.016 987.966 300.76C987.39 300.493 986.931 300.136 986.59 299.688C986.259 299.24 986.078 298.744 986.046 298.2H988.302C988.345 298.541 988.51 298.824 988.798 299.048C989.097 299.272 989.465 299.384 989.902 299.384C990.329 299.384 990.659 299.299 990.894 299.128C991.139 298.957 991.262 298.739 991.262 298.472C991.262 298.184 991.113 297.971 990.814 297.832C990.526 297.683 990.062 297.523 989.422 297.352C988.761 297.192 988.217 297.027 987.79 296.856C987.374 296.685 987.011 296.424 986.702 296.072C986.403 295.72 986.254 295.245 986.254 294.648C986.254 294.157 986.393 293.709 986.67 293.304C986.958 292.899 987.363 292.579 987.886 292.344C988.419 292.109 989.043 291.992 989.758 291.992C990.814 291.992 991.657 292.259 992.286 292.792C992.915 293.315 993.262 294.024 993.326 294.92H991.182C991.15 294.568 991.001 294.291 990.734 294.088C990.478 293.875 990.131 293.768 989.694 293.768C989.289 293.768 988.974 293.843 988.75 293.992C988.537 294.141 988.43 294.349 988.43 294.616C988.43 294.915 988.579 295.144 988.878 295.304C989.177 295.453 989.641 295.608 990.27 295.768C990.91 295.928 991.438 296.093 991.854 296.264C992.27 296.435 992.627 296.701 992.926 297.064C993.235 297.416 993.395 297.885 993.406 298.472C993.406 298.984 993.262 299.443 992.974 299.848C992.697 300.253 992.291 300.573 991.758 300.808C991.235 301.032 990.622 301.144 989.918 301.144ZM997.485 293.432C997.773 293.005 998.167 292.659 998.669 292.392C999.181 292.125 999.762 291.992 1000.41 291.992C1001.17 291.992 1001.85 292.179 1002.46 292.552C1003.08 292.925 1003.56 293.459 1003.92 294.152C1004.28 294.835 1004.46 295.629 1004.46 296.536C1004.46 297.443 1004.28 298.248 1003.92 298.952C1003.56 299.645 1003.08 300.184 1002.46 300.568C1001.85 300.952 1001.17 301.144 1000.41 301.144C999.751 301.144 999.17 301.016 998.669 300.76C998.178 300.493 997.783 300.152 997.485 299.736V301H995.245V289.16H997.485V293.432ZM1002.17 296.536C1002.17 296.003 1002.06 295.544 1001.84 295.16C1001.62 294.765 1001.34 294.467 1000.97 294.264C1000.62 294.061 1000.24 293.96 999.821 293.96C999.415 293.96 999.031 294.067 998.669 294.28C998.317 294.483 998.029 294.781 997.805 295.176C997.591 295.571 997.485 296.035 997.485 296.568C997.485 297.101 997.591 297.565 997.805 297.96C998.029 298.355 998.317 298.659 998.669 298.872C999.031 299.075 999.415 299.176 999.821 299.176C1000.24 299.176 1000.62 299.069 1000.97 298.856C1001.34 298.643 1001.62 298.339 1001.84 297.944C1002.06 297.549 1002.17 297.08 1002.17 296.536ZM1007.22 291.08C1006.83 291.08 1006.5 290.957 1006.23 290.712C1005.98 290.456 1005.85 290.141 1005.85 289.768C1005.85 289.395 1005.98 289.085 1006.23 288.84C1006.5 288.584 1006.83 288.456 1007.22 288.456C1007.62 288.456 1007.94 288.584 1008.2 288.84C1008.47 289.085 1008.6 289.395 1008.6 289.768C1008.6 290.141 1008.47 290.456 1008.2 290.712C1007.94 290.957 1007.62 291.08 1007.22 291.08ZM1008.33 292.136V301H1006.09V292.136H1008.33ZM1014.01 291.992C1014.67 291.992 1015.26 292.125 1015.76 292.392C1016.26 292.648 1016.65 292.984 1016.94 293.4V292.136H1019.2V301.064C1019.2 301.885 1019.03 302.616 1018.7 303.256C1018.37 303.907 1017.87 304.419 1017.21 304.792C1016.55 305.176 1015.75 305.368 1014.81 305.368C1013.55 305.368 1012.52 305.075 1011.71 304.488C1010.91 303.901 1010.46 303.101 1010.35 302.088H1012.57C1012.69 302.493 1012.94 302.813 1013.33 303.048C1013.72 303.293 1014.19 303.416 1014.75 303.416C1015.4 303.416 1015.93 303.219 1016.33 302.824C1016.74 302.44 1016.94 301.853 1016.94 301.064V299.688C1016.65 300.104 1016.25 300.451 1015.74 300.728C1015.24 301.005 1014.66 301.144 1014.01 301.144C1013.27 301.144 1012.58 300.952 1011.97 300.568C1011.35 300.184 1010.86 299.645 1010.49 298.952C1010.14 298.248 1009.97 297.443 1009.97 296.536C1009.97 295.64 1010.14 294.845 1010.49 294.152C1010.86 293.459 1011.34 292.925 1011.95 292.552C1012.57 292.179 1013.26 291.992 1014.01 291.992ZM1016.94 296.568C1016.94 296.024 1016.83 295.56 1016.62 295.176C1016.41 294.781 1016.12 294.483 1015.76 294.28C1015.39 294.067 1015.01 293.96 1014.59 293.96C1014.17 293.96 1013.79 294.061 1013.44 294.264C1013.09 294.467 1012.8 294.765 1012.57 295.16C1012.36 295.544 1012.25 296.003 1012.25 296.536C1012.25 297.069 1012.36 297.539 1012.57 297.944C1012.8 298.339 1013.09 298.643 1013.44 298.856C1013.8 299.069 1014.18 299.176 1014.59 299.176C1015.01 299.176 1015.39 299.075 1015.76 298.872C1016.12 298.659 1016.41 298.36 1016.62 297.976C1016.83 297.581 1016.94 297.112 1016.94 296.568ZM1021.98 301.096C1021.7 301.096 1021.47 301 1021.27 300.808C1021.08 300.616 1020.99 300.381 1020.99 300.104C1020.99 299.827 1021.08 299.592 1021.27 299.4C1021.47 299.208 1021.7 299.112 1021.98 299.112C1022.24 299.112 1022.47 299.208 1022.65 299.4C1022.84 299.592 1022.94 299.827 1022.94 300.104C1022.94 300.381 1022.84 300.616 1022.65 300.808C1022.47 301 1022.24 301.096 1021.98 301.096ZM1024.33 296.6C1024.33 295.693 1024.51 294.904 1024.87 294.232C1025.24 293.549 1025.74 293.021 1026.38 292.648C1027.03 292.275 1027.77 292.088 1028.6 292.088C1029.68 292.088 1030.56 292.349 1031.26 292.872C1031.96 293.395 1032.42 294.12 1032.65 295.048H1031.08C1030.93 294.515 1030.64 294.093 1030.2 293.784C1029.77 293.475 1029.24 293.32 1028.6 293.32C1027.77 293.32 1027.1 293.608 1026.58 294.184C1026.07 294.749 1025.82 295.555 1025.82 296.6C1025.82 297.656 1026.07 298.472 1026.58 299.048C1027.1 299.624 1027.77 299.912 1028.6 299.912C1029.24 299.912 1029.77 299.763 1030.2 299.464C1030.63 299.165 1030.92 298.739 1031.08 298.184H1032.65C1032.41 299.08 1031.94 299.8 1031.24 300.344C1030.54 300.877 1029.66 301.144 1028.6 301.144C1027.77 301.144 1027.03 300.957 1026.38 300.584C1025.74 300.211 1025.24 299.683 1024.87 299C1024.51 298.317 1024.33 297.517 1024.33 296.6ZM1038.42 301.144C1037.59 301.144 1036.85 300.957 1036.18 300.584C1035.51 300.211 1034.99 299.683 1034.61 299C1034.23 298.307 1034.05 297.507 1034.05 296.6C1034.05 295.704 1034.24 294.915 1034.62 294.232C1035.02 293.539 1035.55 293.011 1036.22 292.648C1036.9 292.275 1037.65 292.088 1038.48 292.088C1039.31 292.088 1040.06 292.275 1040.74 292.648C1041.41 293.011 1041.94 293.533 1042.32 294.216C1042.71 294.899 1042.91 295.693 1042.91 296.6C1042.91 297.507 1042.71 298.307 1042.3 299C1041.91 299.683 1041.37 300.211 1040.69 300.584C1040 300.957 1039.25 301.144 1038.42 301.144ZM1038.42 299.864C1038.94 299.864 1039.43 299.741 1039.89 299.496C1040.35 299.251 1040.71 298.883 1040.99 298.392C1041.28 297.901 1041.42 297.304 1041.42 296.6C1041.42 295.896 1041.28 295.299 1041.01 294.808C1040.73 294.317 1040.37 293.955 1039.92 293.72C1039.47 293.475 1038.99 293.352 1038.46 293.352C1037.93 293.352 1037.44 293.475 1036.99 293.72C1036.55 293.955 1036.2 294.317 1035.94 294.808C1035.67 295.299 1035.54 295.896 1035.54 296.6C1035.54 297.315 1035.66 297.917 1035.92 298.408C1036.19 298.899 1036.54 299.267 1036.98 299.512C1037.41 299.747 1037.89 299.864 1038.42 299.864ZM1055.37 292.072C1056.05 292.072 1056.66 292.216 1057.19 292.504C1057.73 292.781 1058.15 293.203 1058.46 293.768C1058.77 294.333 1058.92 295.021 1058.92 295.832V301H1057.48V296.04C1057.48 295.165 1057.26 294.499 1056.83 294.04C1056.4 293.571 1055.82 293.336 1055.08 293.336C1054.32 293.336 1053.72 293.581 1053.27 294.072C1052.83 294.552 1052.6 295.251 1052.6 296.168V301H1051.16V296.04C1051.16 295.165 1050.94 294.499 1050.51 294.04C1050.08 293.571 1049.5 293.336 1048.76 293.336C1048 293.336 1047.4 293.581 1046.95 294.072C1046.51 294.552 1046.28 295.251 1046.28 296.168V301H1044.83V292.232H1046.28V293.496C1046.57 293.037 1046.95 292.685 1047.43 292.44C1047.92 292.195 1048.46 292.072 1049.05 292.072C1049.79 292.072 1050.44 292.237 1051 292.568C1051.57 292.899 1051.99 293.384 1052.27 294.024C1052.51 293.405 1052.92 292.925 1053.48 292.584C1054.05 292.243 1054.68 292.072 1055.37 292.072Z" fill="white" fill-opacity="0.5"/>
</svg>
