<svg width="1500" height="500" viewBox="0 0 1500 500" fill="none" xmlns="http://www.w3.org/2000/svg">
<g clip-path="url(#clip0_13_98)">
<rect width="1500" height="500" fill="#FCFCE9"/>
<path d="M842.08 238V214.12H833.44V209.6H855.88V214.12H847.28V238H842.08ZM863.856 238.48C861.696 238.48 859.976 237.773 858.696 236.36C857.442 234.92 856.816 232.933 856.816 230.4V216.64H861.936V229.12C861.936 230.907 862.229 232.227 862.816 233.08C863.429 233.907 864.349 234.32 865.576 234.32C866.962 234.32 868.029 233.867 868.776 232.96C869.549 232.027 869.936 230.68 869.936 228.92V216.64H875.056V238H870.376L870.256 232.12L870.896 232.32C870.576 234.347 869.816 235.88 868.616 236.92C867.416 237.96 865.829 238.48 863.856 238.48ZM880.683 238V216.64H885.483L885.683 222.56L885.243 222.48C885.563 220.427 886.163 218.947 887.043 218.04C887.949 217.107 889.176 216.64 890.723 216.64H892.683V221.04H890.683C889.589 221.04 888.683 221.2 887.963 221.52C887.243 221.84 886.696 222.347 886.323 223.04C885.976 223.707 885.803 224.587 885.803 225.68V238H880.683ZM895.761 238V216.64H900.401L900.601 222.64L900.001 222.4C900.214 220.907 900.654 219.707 901.321 218.8C901.988 217.893 902.801 217.227 903.761 216.8C904.721 216.373 905.774 216.16 906.921 216.16C908.494 216.16 909.814 216.507 910.881 217.2C911.974 217.893 912.801 218.853 913.361 220.08C913.921 221.28 914.201 222.68 914.201 224.28V238H909.081V225.92C909.081 224.72 908.961 223.707 908.721 222.88C908.481 222.053 908.081 221.427 907.521 221C906.988 220.547 906.268 220.32 905.361 220.32C904.001 220.32 902.908 220.8 902.081 221.76C901.281 222.72 900.881 224.107 900.881 225.92V238H895.761ZM919.433 238V216.64H924.553V238H919.433ZM919.353 213.8V209.24H924.673V213.8H919.353ZM930.488 238V216.64H935.128L935.328 222.64L934.728 222.4C934.941 220.907 935.381 219.707 936.048 218.8C936.714 217.893 937.528 217.227 938.488 216.8C939.448 216.373 940.501 216.16 941.648 216.16C943.221 216.16 944.541 216.507 945.608 217.2C946.701 217.893 947.528 218.853 948.088 220.08C948.648 221.28 948.928 222.68 948.928 224.28V238H943.808V225.92C943.808 224.72 943.688 223.707 943.448 222.88C943.208 222.053 942.808 221.427 942.248 221C941.714 220.547 940.994 220.32 940.088 220.32C938.728 220.32 937.634 220.8 936.808 221.76C936.008 222.72 935.608 224.107 935.608 225.92V238H930.488ZM963.123 244.48C961.256 244.48 959.656 244.227 958.323 243.72C956.99 243.213 955.91 242.493 955.083 241.56C954.283 240.653 953.723 239.6 953.403 238.4L958.683 238.04C958.95 238.84 959.403 239.467 960.043 239.92C960.71 240.373 961.736 240.6 963.123 240.6C964.696 240.6 965.91 240.24 966.763 239.52C967.616 238.827 968.043 237.733 968.043 236.24V233.52C967.536 234.56 966.723 235.4 965.603 236.04C964.483 236.653 963.23 236.96 961.843 236.96C960.083 236.96 958.51 236.533 957.123 235.68C955.763 234.8 954.696 233.587 953.923 232.04C953.15 230.467 952.763 228.653 952.763 226.6C952.763 224.547 953.136 222.747 953.883 221.2C954.656 219.627 955.723 218.4 957.083 217.52C958.443 216.613 960.003 216.16 961.763 216.16C963.31 216.16 964.643 216.507 965.763 217.2C966.883 217.893 967.696 218.813 968.203 219.96V216.64H973.203V236.12C973.203 237.933 972.776 239.467 971.923 240.72C971.096 241.973 969.923 242.907 968.403 243.52C966.91 244.16 965.15 244.48 963.123 244.48ZM963.043 232.96C964.563 232.96 965.776 232.4 966.683 231.28C967.59 230.133 968.056 228.56 968.083 226.56C968.11 225.227 967.91 224.093 967.483 223.16C967.083 222.2 966.496 221.467 965.723 220.96C964.976 220.427 964.083 220.16 963.043 220.16C961.47 220.16 960.243 220.747 959.363 221.92C958.51 223.067 958.083 224.613 958.083 226.56C958.083 228.507 958.523 230.067 959.403 231.24C960.31 232.387 961.523 232.96 963.043 232.96ZM988.261 238V216.64H993.381V238H988.261ZM988.181 213.8V209.24H993.501V213.8H988.181ZM1006.21 238.48C1004.4 238.48 1002.83 238.027 1001.49 237.12C1000.19 236.213 999.173 234.92 998.452 233.24C997.733 231.56 997.373 229.587 997.373 227.32C997.373 225.053 997.733 223.08 998.452 221.4C999.173 219.72 1000.2 218.427 1001.53 217.52C1002.87 216.613 1004.43 216.16 1006.21 216.16C1007.71 216.16 1009.01 216.467 1010.13 217.08C1011.28 217.693 1012.15 218.56 1012.73 219.68V209.6H1017.85V238H1012.97L1012.85 234.84C1012.27 235.987 1011.39 236.88 1010.21 237.52C1009.04 238.16 1007.71 238.48 1006.21 238.48ZM1007.77 234.32C1008.84 234.32 1009.73 234.053 1010.45 233.52C1011.2 232.987 1011.76 232.2 1012.13 231.16C1012.53 230.093 1012.73 228.813 1012.73 227.32C1012.73 225.8 1012.53 224.52 1012.13 223.48C1011.76 222.44 1011.2 221.653 1010.45 221.12C1009.73 220.587 1008.84 220.32 1007.77 220.32C1006.23 220.32 1004.99 220.947 1004.05 222.2C1003.15 223.427 1002.69 225.133 1002.69 227.32C1002.69 229.453 1003.15 231.16 1004.05 232.44C1004.99 233.693 1006.23 234.32 1007.77 234.32ZM1032.31 238.48C1030.17 238.48 1028.32 238.027 1026.75 237.12C1025.17 236.187 1023.96 234.88 1023.11 233.2C1022.25 231.52 1021.83 229.56 1021.83 227.32C1021.83 225.08 1022.25 223.133 1023.11 221.48C1023.96 219.8 1025.16 218.493 1026.71 217.56C1028.28 216.627 1030.11 216.16 1032.19 216.16C1034.21 216.16 1035.99 216.613 1037.51 217.52C1039.05 218.427 1040.24 219.733 1041.07 221.44C1041.89 223.147 1042.31 225.2 1042.31 227.6V228.76H1027.15C1027.25 230.627 1027.76 232.04 1028.67 233C1029.6 233.933 1030.83 234.4 1032.35 234.4C1033.49 234.4 1034.44 234.147 1035.19 233.64C1035.96 233.107 1036.49 232.373 1036.79 231.44L1042.03 231.76C1041.44 233.84 1040.28 235.48 1038.55 236.68C1036.84 237.88 1034.76 238.48 1032.31 238.48ZM1027.15 225.32H1037.03C1036.92 223.587 1036.43 222.307 1035.55 221.48C1034.67 220.627 1033.55 220.2 1032.19 220.2C1030.83 220.2 1029.69 220.64 1028.79 221.52C1027.91 222.4 1027.36 223.667 1027.15 225.32ZM1052.82 238.48C1050.58 238.48 1048.78 237.973 1047.42 236.96C1046.06 235.92 1045.38 234.48 1045.38 232.64C1045.38 230.8 1045.95 229.36 1047.1 228.32C1048.25 227.28 1049.99 226.533 1052.34 226.08L1059.42 224.68C1059.42 223.16 1059.07 222.027 1058.38 221.28C1057.69 220.507 1056.66 220.12 1055.3 220.12C1054.07 220.12 1053.1 220.413 1052.38 221C1051.69 221.56 1051.21 222.373 1050.94 223.44L1045.74 223.2C1046.17 220.933 1047.21 219.2 1048.86 218C1050.51 216.773 1052.66 216.16 1055.3 216.16C1058.34 216.16 1060.63 216.933 1062.18 218.48C1063.75 220 1064.54 222.187 1064.54 225.04V232.8C1064.54 233.36 1064.63 233.747 1064.82 233.96C1065.03 234.173 1065.34 234.28 1065.74 234.28H1066.42V238C1066.26 238.053 1065.99 238.093 1065.62 238.12C1065.27 238.147 1064.91 238.16 1064.54 238.16C1063.66 238.16 1062.87 238.027 1062.18 237.76C1061.49 237.467 1060.95 236.973 1060.58 236.28C1060.21 235.56 1060.02 234.587 1060.02 233.36L1060.46 233.68C1060.25 234.613 1059.78 235.453 1059.06 236.2C1058.37 236.92 1057.49 237.48 1056.42 237.88C1055.35 238.28 1054.15 238.48 1052.82 238.48ZM1053.86 234.76C1055.01 234.76 1055.99 234.533 1056.82 234.08C1057.65 233.627 1058.29 233 1058.74 232.2C1059.19 231.4 1059.42 230.453 1059.42 229.36V228.16L1053.9 229.28C1052.75 229.52 1051.93 229.88 1051.42 230.36C1050.94 230.813 1050.7 231.413 1050.7 232.16C1050.7 232.987 1050.97 233.627 1051.5 234.08C1052.06 234.533 1052.85 234.76 1053.86 234.76ZM1078.19 238.48C1076.08 238.48 1074.31 238.173 1072.87 237.56C1071.46 236.947 1070.36 236.093 1069.59 235C1068.82 233.907 1068.38 232.667 1068.27 231.28L1073.51 231.04C1073.7 232.16 1074.16 233.027 1074.91 233.64C1075.66 234.253 1076.76 234.56 1078.23 234.56C1079.43 234.56 1080.36 234.373 1081.03 234C1081.72 233.6 1082.07 232.987 1082.07 232.16C1082.07 231.68 1081.95 231.28 1081.71 230.96C1081.47 230.64 1081.02 230.36 1080.35 230.12C1079.68 229.88 1078.7 229.64 1077.39 229.4C1075.2 229.027 1073.48 228.573 1072.23 228.04C1070.98 227.48 1070.08 226.787 1069.55 225.96C1069.04 225.133 1068.79 224.107 1068.79 222.88C1068.79 220.88 1069.55 219.267 1071.07 218.04C1072.62 216.787 1074.87 216.16 1077.83 216.16C1079.75 216.16 1081.36 216.48 1082.67 217.12C1083.98 217.733 1084.99 218.587 1085.71 219.68C1086.46 220.747 1086.92 221.973 1087.11 223.36L1081.95 223.6C1081.82 222.88 1081.58 222.253 1081.23 221.72C1080.88 221.187 1080.42 220.787 1079.83 220.52C1079.24 220.227 1078.55 220.08 1077.75 220.08C1076.55 220.08 1075.64 220.32 1075.03 220.8C1074.42 221.28 1074.11 221.92 1074.11 222.72C1074.11 223.28 1074.24 223.747 1074.51 224.12C1074.8 224.493 1075.27 224.8 1075.91 225.04C1076.55 225.253 1077.4 225.453 1078.47 225.64C1080.71 225.987 1082.47 226.44 1083.75 227C1085.06 227.533 1085.98 228.227 1086.51 229.08C1087.07 229.907 1087.35 230.907 1087.35 232.08C1087.35 233.44 1086.96 234.6 1086.19 235.56C1085.44 236.52 1084.38 237.253 1082.99 237.76C1081.63 238.24 1080.03 238.48 1078.19 238.48ZM1101.19 238V216.64H1106.31V238H1101.19ZM1101.11 213.8V209.24H1106.43V213.8H1101.11ZM1112.25 238V216.64H1116.89L1117.09 222.64L1116.49 222.4C1116.7 220.907 1117.14 219.707 1117.81 218.8C1118.47 217.893 1119.29 217.227 1120.25 216.8C1121.21 216.373 1122.26 216.16 1123.41 216.16C1124.98 216.16 1126.3 216.507 1127.37 217.2C1128.46 217.893 1129.29 218.853 1129.85 220.08C1130.41 221.28 1130.69 222.68 1130.69 224.28V238H1125.57V225.92C1125.57 224.72 1125.45 223.707 1125.21 222.88C1124.97 222.053 1124.57 221.427 1124.01 221C1123.47 220.547 1122.75 220.32 1121.85 220.32C1120.49 220.32 1119.39 220.8 1118.57 221.76C1117.77 222.72 1117.37 224.107 1117.37 225.92V238H1112.25ZM1143.34 238C1141.21 238 1139.64 237.507 1138.62 236.52C1137.64 235.533 1137.14 233.987 1137.14 231.88V211.64H1142.26V231.4C1142.26 232.387 1142.48 233.08 1142.9 233.48C1143.33 233.853 1144 234.04 1144.9 234.04H1147.9V238H1143.34ZM1133.78 220.6V216.64H1147.9V220.6H1133.78ZM1160.59 238.48C1158.48 238.48 1156.63 238.027 1155.03 237.12C1153.45 236.187 1152.23 234.88 1151.35 233.2C1150.49 231.52 1150.07 229.56 1150.07 227.32C1150.07 225.053 1150.49 223.093 1151.35 221.44C1152.23 219.76 1153.45 218.467 1155.03 217.56C1156.63 216.627 1158.48 216.16 1160.59 216.16C1162.69 216.16 1164.53 216.627 1166.11 217.56C1167.68 218.467 1168.89 219.76 1169.75 221.44C1170.63 223.093 1171.07 225.053 1171.07 227.32C1171.07 229.56 1170.63 231.52 1169.75 233.2C1168.89 234.88 1167.68 236.187 1166.11 237.12C1164.53 238.027 1162.69 238.48 1160.59 238.48ZM1160.59 234.32C1162.24 234.32 1163.51 233.707 1164.39 232.48C1165.29 231.253 1165.75 229.533 1165.75 227.32C1165.75 225.133 1165.29 223.427 1164.39 222.2C1163.51 220.947 1162.24 220.32 1160.59 220.32C1158.93 220.32 1157.65 220.947 1156.75 222.2C1155.84 223.427 1155.39 225.133 1155.39 227.32C1155.39 229.533 1155.84 231.253 1156.75 232.48C1157.65 233.707 1158.93 234.32 1160.59 234.32ZM1193.98 244.48C1192.12 244.48 1190.52 244.227 1189.18 243.72C1187.85 243.213 1186.77 242.493 1185.94 241.56C1185.14 240.653 1184.58 239.6 1184.26 238.4L1189.54 238.04C1189.81 238.84 1190.26 239.467 1190.9 239.92C1191.57 240.373 1192.6 240.6 1193.98 240.6C1195.56 240.6 1196.77 240.24 1197.62 239.52C1198.48 238.827 1198.9 237.733 1198.9 236.24V233.52C1198.4 234.56 1197.58 235.4 1196.46 236.04C1195.34 236.653 1194.09 236.96 1192.7 236.96C1190.94 236.96 1189.37 236.533 1187.98 235.68C1186.62 234.8 1185.56 233.587 1184.78 232.04C1184.01 230.467 1183.62 228.653 1183.62 226.6C1183.62 224.547 1184 222.747 1184.74 221.2C1185.52 219.627 1186.58 218.4 1187.94 217.52C1189.3 216.613 1190.86 216.16 1192.62 216.16C1194.17 216.16 1195.5 216.507 1196.62 217.2C1197.74 217.893 1198.56 218.813 1199.06 219.96V216.64H1204.06V236.12C1204.06 237.933 1203.64 239.467 1202.78 240.72C1201.96 241.973 1200.78 242.907 1199.26 243.52C1197.77 244.16 1196.01 244.48 1193.98 244.48ZM1193.9 232.96C1195.42 232.96 1196.64 232.4 1197.54 231.28C1198.45 230.133 1198.92 228.56 1198.94 226.56C1198.97 225.227 1198.77 224.093 1198.34 223.16C1197.94 222.2 1197.36 221.467 1196.58 220.96C1195.84 220.427 1194.94 220.16 1193.9 220.16C1192.33 220.16 1191.1 220.747 1190.22 221.92C1189.37 223.067 1188.94 224.613 1188.94 226.56C1188.94 228.507 1189.38 230.067 1190.26 231.24C1191.17 232.387 1192.38 232.96 1193.9 232.96ZM1209.67 238V216.64H1214.47L1214.67 222.56L1214.23 222.48C1214.55 220.427 1215.15 218.947 1216.03 218.04C1216.93 217.107 1218.16 216.64 1219.71 216.64H1221.67V221.04H1219.67C1218.57 221.04 1217.67 221.2 1216.95 221.52C1216.23 221.84 1215.68 222.347 1215.31 223.04C1214.96 223.707 1214.79 224.587 1214.79 225.68V238H1209.67ZM1233.67 238.48C1231.54 238.48 1229.69 238.027 1228.11 237.12C1226.54 236.187 1225.33 234.88 1224.47 233.2C1223.62 231.52 1223.19 229.56 1223.19 227.32C1223.19 225.08 1223.62 223.133 1224.47 221.48C1225.33 219.8 1226.53 218.493 1228.07 217.56C1229.65 216.627 1231.47 216.16 1233.55 216.16C1235.58 216.16 1237.35 216.613 1238.87 217.52C1240.42 218.427 1241.61 219.733 1242.43 221.44C1243.26 223.147 1243.67 225.2 1243.67 227.6V228.76H1228.51C1228.62 230.627 1229.13 232.04 1230.03 233C1230.97 233.933 1232.19 234.4 1233.71 234.4C1234.86 234.4 1235.81 234.147 1236.55 233.64C1237.33 233.107 1237.86 232.373 1238.15 231.44L1243.39 231.76C1242.81 233.84 1241.65 235.48 1239.91 236.68C1238.21 237.88 1236.13 238.48 1233.67 238.48ZM1228.51 225.32H1238.39C1238.29 223.587 1237.79 222.307 1236.91 221.48C1236.03 220.627 1234.91 220.2 1233.55 220.2C1232.19 220.2 1231.06 220.64 1230.15 221.52C1229.27 222.4 1228.73 223.667 1228.51 225.32ZM1254.19 238.48C1251.95 238.48 1250.15 237.973 1248.79 236.96C1247.43 235.92 1246.75 234.48 1246.75 232.64C1246.75 230.8 1247.32 229.36 1248.47 228.32C1249.61 227.28 1251.36 226.533 1253.71 226.08L1260.79 224.68C1260.79 223.16 1260.44 222.027 1259.75 221.28C1259.05 220.507 1258.03 220.12 1256.67 220.12C1255.44 220.12 1254.47 220.413 1253.75 221C1253.05 221.56 1252.57 222.373 1252.31 223.44L1247.11 223.2C1247.53 220.933 1248.57 219.2 1250.23 218C1251.88 216.773 1254.03 216.16 1256.67 216.16C1259.71 216.16 1262 216.933 1263.55 218.48C1265.12 220 1265.91 222.187 1265.91 225.04V232.8C1265.91 233.36 1266 233.747 1266.19 233.96C1266.4 234.173 1266.71 234.28 1267.11 234.28H1267.79V238C1267.63 238.053 1267.36 238.093 1266.99 238.12C1266.64 238.147 1266.28 238.16 1265.91 238.16C1265.03 238.16 1264.24 238.027 1263.55 237.76C1262.85 237.467 1262.32 236.973 1261.95 236.28C1261.57 235.56 1261.39 234.587 1261.39 233.36L1261.83 233.68C1261.61 234.613 1261.15 235.453 1260.43 236.2C1259.73 236.92 1258.85 237.48 1257.79 237.88C1256.72 238.28 1255.52 238.48 1254.19 238.48ZM1255.23 234.76C1256.37 234.76 1257.36 234.533 1258.19 234.08C1259.01 233.627 1259.65 233 1260.11 232.2C1260.56 231.4 1260.79 230.453 1260.79 229.36V228.16L1255.27 229.28C1254.12 229.52 1253.29 229.88 1252.79 230.36C1252.31 230.813 1252.07 231.413 1252.07 232.16C1252.07 232.987 1252.33 233.627 1252.87 234.08C1253.43 234.533 1254.21 234.76 1255.23 234.76ZM1278.58 238C1276.45 238 1274.87 237.507 1273.86 236.52C1272.87 235.533 1272.38 233.987 1272.38 231.88V211.64H1277.5V231.4C1277.5 232.387 1277.71 233.08 1278.14 233.48C1278.57 233.853 1279.23 234.04 1280.14 234.04H1283.14V238H1278.58ZM1269.02 220.6V216.64H1283.14V220.6H1269.02ZM1296.54 238V216.64H1301.34L1301.54 222.56L1301.1 222.48C1301.42 220.427 1302.02 218.947 1302.9 218.04C1303.81 217.107 1305.04 216.64 1306.58 216.64H1308.54V221.04H1306.54C1305.45 221.04 1304.54 221.2 1303.82 221.52C1303.1 221.84 1302.56 222.347 1302.18 223.04C1301.84 223.707 1301.66 224.587 1301.66 225.68V238H1296.54ZM1320.55 238.48C1318.41 238.48 1316.56 238.027 1314.99 237.12C1313.41 236.187 1312.2 234.88 1311.35 233.2C1310.49 231.52 1310.07 229.56 1310.07 227.32C1310.07 225.08 1310.49 223.133 1311.35 221.48C1312.2 219.8 1313.4 218.493 1314.95 217.56C1316.52 216.627 1318.35 216.16 1320.43 216.16C1322.45 216.16 1324.23 216.613 1325.75 217.52C1327.29 218.427 1328.48 219.733 1329.31 221.44C1330.13 223.147 1330.55 225.2 1330.55 227.6V228.76H1315.39C1315.49 230.627 1316 232.04 1316.91 233C1317.84 233.933 1319.07 234.4 1320.59 234.4C1321.73 234.4 1322.68 234.147 1323.43 233.64C1324.2 233.107 1324.73 232.373 1325.03 231.44L1330.27 231.76C1329.68 233.84 1328.52 235.48 1326.79 236.68C1325.08 237.88 1323 238.48 1320.55 238.48ZM1315.39 225.32H1325.27C1325.16 223.587 1324.67 222.307 1323.79 221.48C1322.91 220.627 1321.79 220.2 1320.43 220.2C1319.07 220.2 1317.93 220.64 1317.03 221.52C1316.15 222.4 1315.6 223.667 1315.39 225.32ZM1343.23 238.48C1341.12 238.48 1339.35 238.173 1337.91 237.56C1336.5 236.947 1335.4 236.093 1334.63 235C1333.86 233.907 1333.42 232.667 1333.31 231.28L1338.55 231.04C1338.74 232.16 1339.2 233.027 1339.95 233.64C1340.7 234.253 1341.8 234.56 1343.27 234.56C1344.47 234.56 1345.4 234.373 1346.07 234C1346.76 233.6 1347.11 232.987 1347.11 232.16C1347.11 231.68 1346.99 231.28 1346.75 230.96C1346.51 230.64 1346.06 230.36 1345.39 230.12C1344.72 229.88 1343.74 229.64 1342.43 229.4C1340.24 229.027 1338.52 228.573 1337.27 228.04C1336.02 227.48 1335.12 226.787 1334.59 225.96C1334.08 225.133 1333.83 224.107 1333.83 222.88C1333.83 220.88 1334.59 219.267 1336.11 218.04C1337.66 216.787 1339.91 216.16 1342.87 216.16C1344.79 216.16 1346.4 216.48 1347.71 217.12C1349.02 217.733 1350.03 218.587 1350.75 219.68C1351.5 220.747 1351.96 221.973 1352.15 223.36L1346.99 223.6C1346.86 222.88 1346.62 222.253 1346.27 221.72C1345.92 221.187 1345.46 220.787 1344.87 220.52C1344.28 220.227 1343.59 220.08 1342.79 220.08C1341.59 220.08 1340.68 220.32 1340.07 220.8C1339.46 221.28 1339.15 221.92 1339.15 222.72C1339.15 223.28 1339.28 223.747 1339.55 224.12C1339.84 224.493 1340.31 224.8 1340.95 225.04C1341.59 225.253 1342.44 225.453 1343.51 225.64C1345.75 225.987 1347.51 226.44 1348.79 227C1350.1 227.533 1351.02 228.227 1351.55 229.08C1352.11 229.907 1352.39 230.907 1352.39 232.08C1352.39 233.44 1352 234.6 1351.23 235.56C1350.48 236.52 1349.42 237.253 1348.03 237.76C1346.67 238.24 1345.07 238.48 1343.23 238.48ZM1363.43 238.48C1361.27 238.48 1359.55 237.773 1358.27 236.36C1357.01 234.92 1356.39 232.933 1356.39 230.4V216.64H1361.51V229.12C1361.51 230.907 1361.8 232.227 1362.39 233.08C1363 233.907 1363.92 234.32 1365.15 234.32C1366.53 234.32 1367.6 233.867 1368.35 232.96C1369.12 232.027 1369.51 230.68 1369.51 228.92V216.64H1374.63V238H1369.95L1369.83 232.12L1370.47 232.32C1370.15 234.347 1369.39 235.88 1368.19 236.92C1366.99 237.96 1365.4 238.48 1363.43 238.48ZM1385.37 238C1383.83 238 1382.59 237.6 1381.65 236.8C1380.72 236 1380.25 234.72 1380.25 232.96V209.6H1385.37V232.44C1385.37 232.973 1385.51 233.373 1385.77 233.64C1386.07 233.907 1386.47 234.04 1386.97 234.04H1388.53V238H1385.37ZM1399.52 238C1397.38 238 1395.81 237.507 1394.8 236.52C1393.81 235.533 1393.32 233.987 1393.32 231.88V211.64H1398.44V231.4C1398.44 232.387 1398.65 233.08 1399.08 233.48C1399.5 233.853 1400.17 234.04 1401.08 234.04H1404.08V238H1399.52ZM1389.96 220.6V216.64H1404.08V220.6H1389.96ZM1416.16 238.48C1414.05 238.48 1412.28 238.173 1410.84 237.56C1409.43 236.947 1408.33 236.093 1407.56 235C1406.79 233.907 1406.35 232.667 1406.24 231.28L1411.48 231.04C1411.67 232.16 1412.13 233.027 1412.88 233.64C1413.63 234.253 1414.73 234.56 1416.2 234.56C1417.4 234.56 1418.33 234.373 1419 234C1419.69 233.6 1420.04 232.987 1420.04 232.16C1420.04 231.68 1419.92 231.28 1419.68 230.96C1419.44 230.64 1418.99 230.36 1418.32 230.12C1417.65 229.88 1416.67 229.64 1415.36 229.4C1413.17 229.027 1411.45 228.573 1410.2 228.04C1408.95 227.48 1408.05 226.787 1407.52 225.96C1407.01 225.133 1406.76 224.107 1406.76 222.88C1406.76 220.88 1407.52 219.267 1409.04 218.04C1410.59 216.787 1412.84 216.16 1415.8 216.16C1417.72 216.16 1419.33 216.48 1420.64 217.12C1421.95 217.733 1422.96 218.587 1423.68 219.68C1424.43 220.747 1424.89 221.973 1425.08 223.36L1419.92 223.6C1419.79 222.88 1419.55 222.253 1419.2 221.72C1418.85 221.187 1418.39 220.787 1417.8 220.52C1417.21 220.227 1416.52 220.08 1415.72 220.08C1414.52 220.08 1413.61 220.32 1413 220.8C1412.39 221.28 1412.08 221.92 1412.08 222.72C1412.08 223.28 1412.21 223.747 1412.48 224.12C1412.77 224.493 1413.24 224.8 1413.88 225.04C1414.52 225.253 1415.37 225.453 1416.44 225.64C1418.68 225.987 1420.44 226.44 1421.72 227C1423.03 227.533 1423.95 228.227 1424.48 229.08C1425.04 229.907 1425.32 230.907 1425.32 232.08C1425.32 233.44 1424.93 234.6 1424.16 235.56C1423.41 236.52 1422.35 237.253 1420.96 237.76C1419.6 238.24 1418 238.48 1416.16 238.48Z" fill="#EFBE61"/>
<path d="M954.414 277.414C955.195 276.633 955.195 275.367 954.414 274.586L941.686 261.858C940.905 261.077 939.639 261.077 938.858 261.858C938.077 262.639 938.077 263.905 938.858 264.686L950.172 276L938.858 287.314C938.077 288.095 938.077 289.361 938.858 290.142C939.639 290.923 940.905 290.923 941.686 290.142L954.414 277.414ZM833 278H953V274H833V278Z" fill="#EFBE61"/>
<path d="M1009.88 290.64C1007.29 290.64 1005.01 290.053 1003.04 288.88C1001.07 287.68 999.52 285.987 998.4 283.8C997.28 281.587 996.72 278.933 996.72 275.84C996.72 272.8 997.267 270.173 998.36 267.96C999.453 265.72 1000.99 264 1002.96 262.8C1004.93 261.573 1007.25 260.96 1009.92 260.96C1013.55 260.96 1016.36 261.867 1018.36 263.68C1020.36 265.467 1021.67 267.973 1022.28 271.2L1016.84 271.48C1016.49 269.613 1015.75 268.147 1014.6 267.08C1013.45 266.013 1011.89 265.48 1009.92 265.48C1008.32 265.48 1006.93 265.907 1005.76 266.76C1004.59 267.613 1003.68 268.813 1003.04 270.36C1002.4 271.907 1002.08 273.733 1002.08 275.84C1002.08 277.973 1002.4 279.813 1003.04 281.36C1003.71 282.88 1004.63 284.053 1005.8 284.88C1006.97 285.707 1008.33 286.12 1009.88 286.12C1011.99 286.12 1013.61 285.547 1014.76 284.4C1015.93 283.227 1016.68 281.627 1017 279.6L1022.44 279.88C1022.07 282.093 1021.35 284.013 1020.28 285.64C1019.21 287.24 1017.8 288.48 1016.04 289.36C1014.31 290.213 1012.25 290.64 1009.88 290.64ZM1035.67 290.48C1033.57 290.48 1031.71 290.027 1030.11 289.12C1028.54 288.187 1027.31 286.88 1026.43 285.2C1025.58 283.52 1025.15 281.56 1025.15 279.32C1025.15 277.053 1025.58 275.093 1026.43 273.44C1027.31 271.76 1028.54 270.467 1030.11 269.56C1031.71 268.627 1033.57 268.16 1035.67 268.16C1037.78 268.16 1039.62 268.627 1041.19 269.56C1042.77 270.467 1043.98 271.76 1044.83 273.44C1045.71 275.093 1046.15 277.053 1046.15 279.32C1046.15 281.56 1045.71 283.52 1044.83 285.2C1043.98 286.88 1042.77 288.187 1041.19 289.12C1039.62 290.027 1037.78 290.48 1035.67 290.48ZM1035.67 286.32C1037.33 286.32 1038.59 285.707 1039.47 284.48C1040.38 283.253 1040.83 281.533 1040.83 279.32C1040.83 277.133 1040.38 275.427 1039.47 274.2C1038.59 272.947 1037.33 272.32 1035.67 272.32C1034.02 272.32 1032.74 272.947 1031.83 274.2C1030.93 275.427 1030.47 277.133 1030.47 279.32C1030.47 281.533 1030.93 283.253 1031.83 284.48C1032.74 285.707 1034.02 286.32 1035.67 286.32ZM1057.7 290.48C1055.89 290.48 1054.32 290.027 1052.98 289.12C1051.68 288.213 1050.66 286.92 1049.94 285.24C1049.22 283.56 1048.86 281.587 1048.86 279.32C1048.86 277.053 1049.22 275.08 1049.94 273.4C1050.66 271.72 1051.69 270.427 1053.02 269.52C1054.36 268.613 1055.92 268.16 1057.7 268.16C1059.2 268.16 1060.5 268.467 1061.62 269.08C1062.77 269.693 1063.64 270.56 1064.22 271.68V261.6H1069.34V290H1064.46L1064.34 286.84C1063.76 287.987 1062.88 288.88 1061.7 289.52C1060.53 290.16 1059.2 290.48 1057.7 290.48ZM1059.26 286.32C1060.33 286.32 1061.22 286.053 1061.94 285.52C1062.69 284.987 1063.25 284.2 1063.62 283.16C1064.02 282.093 1064.22 280.813 1064.22 279.32C1064.22 277.8 1064.02 276.52 1063.62 275.48C1063.25 274.44 1062.69 273.653 1061.94 273.12C1061.22 272.587 1060.33 272.32 1059.26 272.32C1057.72 272.32 1056.48 272.947 1055.54 274.2C1054.64 275.427 1054.18 277.133 1054.18 279.32C1054.18 281.453 1054.64 283.16 1055.54 284.44C1056.48 285.693 1057.72 286.32 1059.26 286.32ZM1083.8 290.48C1081.66 290.48 1079.81 290.027 1078.24 289.12C1076.66 288.187 1075.45 286.88 1074.6 285.2C1073.74 283.52 1073.32 281.56 1073.32 279.32C1073.32 277.08 1073.74 275.133 1074.6 273.48C1075.45 271.8 1076.65 270.493 1078.2 269.56C1079.77 268.627 1081.6 268.16 1083.68 268.16C1085.7 268.16 1087.48 268.613 1089 269.52C1090.54 270.427 1091.73 271.733 1092.56 273.44C1093.38 275.147 1093.8 277.2 1093.8 279.6V280.76H1078.64C1078.74 282.627 1079.25 284.04 1080.16 285C1081.09 285.933 1082.32 286.4 1083.84 286.4C1084.98 286.4 1085.93 286.147 1086.68 285.64C1087.45 285.107 1087.98 284.373 1088.28 283.44L1093.52 283.76C1092.93 285.84 1091.77 287.48 1090.04 288.68C1088.33 289.88 1086.25 290.48 1083.8 290.48ZM1078.64 277.32H1088.52C1088.41 275.587 1087.92 274.307 1087.04 273.48C1086.16 272.627 1085.04 272.2 1083.68 272.2C1082.32 272.2 1081.18 272.64 1080.28 273.52C1079.4 274.4 1078.85 275.667 1078.64 277.32ZM1096.95 290V284.4H1102.79V290H1096.95ZM1128.71 290.64C1126.12 290.64 1123.84 290.053 1121.87 288.88C1119.89 287.68 1118.35 285.987 1117.23 283.8C1116.11 281.587 1115.55 278.933 1115.55 275.84C1115.55 272.8 1116.09 270.173 1117.19 267.96C1118.28 265.72 1119.81 264 1121.79 262.8C1123.76 261.573 1126.08 260.96 1128.75 260.96C1132.37 260.96 1135.19 261.867 1137.19 263.68C1139.19 265.467 1140.49 267.973 1141.11 271.2L1135.67 271.48C1135.32 269.613 1134.57 268.147 1133.43 267.08C1132.28 266.013 1130.72 265.48 1128.75 265.48C1127.15 265.48 1125.76 265.907 1124.59 266.76C1123.41 267.613 1122.51 268.813 1121.87 270.36C1121.23 271.907 1120.91 273.733 1120.91 275.84C1120.91 277.973 1121.23 279.813 1121.87 281.36C1122.53 282.88 1123.45 284.053 1124.63 284.88C1125.8 285.707 1127.16 286.12 1128.71 286.12C1130.81 286.12 1132.44 285.547 1133.59 284.4C1134.76 283.227 1135.51 281.627 1135.83 279.6L1141.27 279.88C1140.89 282.093 1140.17 284.013 1139.11 285.64C1138.04 287.24 1136.63 288.48 1134.87 289.36C1133.13 290.213 1131.08 290.64 1128.71 290.64ZM1145.22 290V268.64H1150.02L1150.22 274.56L1149.78 274.48C1150.1 272.427 1150.7 270.947 1151.58 270.04C1152.49 269.107 1153.72 268.64 1155.26 268.64H1157.22V273.04H1155.22C1154.13 273.04 1153.22 273.2 1152.5 273.52C1151.78 273.84 1151.24 274.347 1150.86 275.04C1150.52 275.707 1150.34 276.587 1150.34 277.68V290H1145.22ZM1169.23 290.48C1167.09 290.48 1165.24 290.027 1163.67 289.12C1162.09 288.187 1160.88 286.88 1160.03 285.2C1159.17 283.52 1158.75 281.56 1158.75 279.32C1158.75 277.08 1159.17 275.133 1160.03 273.48C1160.88 271.8 1162.08 270.493 1163.63 269.56C1165.2 268.627 1167.03 268.16 1169.11 268.16C1171.13 268.16 1172.91 268.613 1174.43 269.52C1175.97 270.427 1177.16 271.733 1177.99 273.44C1178.81 275.147 1179.23 277.2 1179.23 279.6V280.76H1164.07C1164.17 282.627 1164.68 284.04 1165.59 285C1166.52 285.933 1167.75 286.4 1169.27 286.4C1170.41 286.4 1171.36 286.147 1172.11 285.64C1172.88 285.107 1173.41 284.373 1173.71 283.44L1178.95 283.76C1178.36 285.84 1177.2 287.48 1175.47 288.68C1173.76 289.88 1171.68 290.48 1169.23 290.48ZM1164.07 277.32H1173.95C1173.84 275.587 1173.35 274.307 1172.47 273.48C1171.59 272.627 1170.47 272.2 1169.11 272.2C1167.75 272.2 1166.61 272.64 1165.71 273.52C1164.83 274.4 1164.28 275.667 1164.07 277.32ZM1189.74 290.48C1187.5 290.48 1185.7 289.973 1184.34 288.96C1182.98 287.92 1182.3 286.48 1182.3 284.64C1182.3 282.8 1182.88 281.36 1184.02 280.32C1185.17 279.28 1186.92 278.533 1189.26 278.08L1196.34 276.68C1196.34 275.16 1196 274.027 1195.3 273.28C1194.61 272.507 1193.58 272.12 1192.22 272.12C1191 272.12 1190.02 272.413 1189.3 273C1188.61 273.56 1188.13 274.373 1187.86 275.44L1182.66 275.2C1183.09 272.933 1184.13 271.2 1185.78 270C1187.44 268.773 1189.58 268.16 1192.22 268.16C1195.26 268.16 1197.56 268.933 1199.1 270.48C1200.68 272 1201.46 274.187 1201.46 277.04V284.8C1201.46 285.36 1201.56 285.747 1201.74 285.96C1201.96 286.173 1202.26 286.28 1202.66 286.28H1203.34V290C1203.18 290.053 1202.92 290.093 1202.54 290.12C1202.2 290.147 1201.84 290.16 1201.46 290.16C1200.58 290.16 1199.8 290.027 1199.1 289.76C1198.41 289.467 1197.88 288.973 1197.5 288.28C1197.13 287.56 1196.94 286.587 1196.94 285.36L1197.38 285.68C1197.17 286.613 1196.7 287.453 1195.98 288.2C1195.29 288.92 1194.41 289.48 1193.34 289.88C1192.28 290.28 1191.08 290.48 1189.74 290.48ZM1190.78 286.76C1191.93 286.76 1192.92 286.533 1193.74 286.08C1194.57 285.627 1195.21 285 1195.66 284.2C1196.12 283.4 1196.34 282.453 1196.34 281.36V280.16L1190.82 281.28C1189.68 281.52 1188.85 281.88 1188.34 282.36C1187.86 282.813 1187.62 283.413 1187.62 284.16C1187.62 284.987 1187.89 285.627 1188.42 286.08C1188.98 286.533 1189.77 286.76 1190.78 286.76ZM1214.13 290C1212 290 1210.43 289.507 1209.41 288.52C1208.43 287.533 1207.93 285.987 1207.93 283.88V263.64H1213.05V283.4C1213.05 284.387 1213.27 285.08 1213.69 285.48C1214.12 285.853 1214.79 286.04 1215.69 286.04H1218.69V290H1214.13ZM1204.57 272.6V268.64H1218.69V272.6H1204.57ZM1231.34 290.48C1229.2 290.48 1227.35 290.027 1225.78 289.12C1224.2 288.187 1222.99 286.88 1222.14 285.2C1221.28 283.52 1220.86 281.56 1220.86 279.32C1220.86 277.08 1221.28 275.133 1222.14 273.48C1222.99 271.8 1224.19 270.493 1225.74 269.56C1227.31 268.627 1229.14 268.16 1231.22 268.16C1233.24 268.16 1235.02 268.613 1236.54 269.52C1238.08 270.427 1239.27 271.733 1240.1 273.44C1240.92 275.147 1241.34 277.2 1241.34 279.6V280.76H1226.18C1226.28 282.627 1226.79 284.04 1227.7 285C1228.63 285.933 1229.86 286.4 1231.38 286.4C1232.52 286.4 1233.47 286.147 1234.22 285.64C1234.99 285.107 1235.52 284.373 1235.82 283.44L1241.06 283.76C1240.47 285.84 1239.31 287.48 1237.58 288.68C1235.87 289.88 1233.79 290.48 1231.34 290.48ZM1226.18 277.32H1236.06C1235.95 275.587 1235.46 274.307 1234.58 273.48C1233.7 272.627 1232.58 272.2 1231.22 272.2C1229.86 272.2 1228.72 272.64 1227.82 273.52C1226.94 274.4 1226.39 275.667 1226.18 277.32ZM1244.49 290V284.4H1250.33V290H1244.49ZM1276.25 290.64C1273.66 290.64 1271.38 290.053 1269.41 288.88C1267.43 287.68 1265.89 285.987 1264.77 283.8C1263.65 281.587 1263.09 278.933 1263.09 275.84C1263.09 272.8 1263.63 270.173 1264.73 267.96C1265.82 265.72 1267.35 264 1269.33 262.8C1271.3 261.573 1273.62 260.96 1276.29 260.96C1279.91 260.96 1282.73 261.867 1284.73 263.68C1286.73 265.467 1288.03 267.973 1288.65 271.2L1283.21 271.48C1282.86 269.613 1282.11 268.147 1280.97 267.08C1279.82 266.013 1278.26 265.48 1276.29 265.48C1274.69 265.48 1273.3 265.907 1272.13 266.76C1270.95 267.613 1270.05 268.813 1269.41 270.36C1268.77 271.907 1268.45 273.733 1268.45 275.84C1268.45 277.973 1268.77 279.813 1269.41 281.36C1270.07 282.88 1270.99 284.053 1272.17 284.88C1273.34 285.707 1274.7 286.12 1276.25 286.12C1278.35 286.12 1279.98 285.547 1281.13 284.4C1282.3 283.227 1283.05 281.627 1283.37 279.6L1288.81 279.88C1288.43 282.093 1287.71 284.013 1286.65 285.64C1285.58 287.24 1284.17 288.48 1282.41 289.36C1280.67 290.213 1278.62 290.64 1276.25 290.64ZM1302.04 290.48C1299.93 290.48 1298.08 290.027 1296.48 289.12C1294.91 288.187 1293.68 286.88 1292.8 285.2C1291.95 283.52 1291.52 281.56 1291.52 279.32C1291.52 277.053 1291.95 275.093 1292.8 273.44C1293.68 271.76 1294.91 270.467 1296.48 269.56C1298.08 268.627 1299.93 268.16 1302.04 268.16C1304.15 268.16 1305.99 268.627 1307.56 269.56C1309.13 270.467 1310.35 271.76 1311.2 273.44C1312.08 275.093 1312.52 277.053 1312.52 279.32C1312.52 281.56 1312.08 283.52 1311.2 285.2C1310.35 286.88 1309.13 288.187 1307.56 289.12C1305.99 290.027 1304.15 290.48 1302.04 290.48ZM1302.04 286.32C1303.69 286.32 1304.96 285.707 1305.84 284.48C1306.75 283.253 1307.2 281.533 1307.2 279.32C1307.2 277.133 1306.75 275.427 1305.84 274.2C1304.96 272.947 1303.69 272.32 1302.04 272.32C1300.39 272.32 1299.11 272.947 1298.2 274.2C1297.29 275.427 1296.84 277.133 1296.84 279.32C1296.84 281.533 1297.29 283.253 1298.2 284.48C1299.11 285.707 1300.39 286.32 1302.04 286.32ZM1316.47 290V268.64H1321.11L1321.31 274.64L1320.71 274.4C1320.93 272.907 1321.37 271.707 1322.03 270.8C1322.7 269.893 1323.51 269.227 1324.47 268.8C1325.43 268.373 1326.49 268.16 1327.63 268.16C1329.21 268.16 1330.53 268.507 1331.59 269.2C1332.69 269.893 1333.51 270.853 1334.07 272.08C1334.63 273.28 1334.91 274.68 1334.91 276.28V290H1329.79V277.92C1329.79 276.72 1329.67 275.707 1329.43 274.88C1329.19 274.053 1328.79 273.427 1328.23 273C1327.7 272.547 1326.98 272.32 1326.07 272.32C1324.71 272.32 1323.62 272.8 1322.79 273.76C1321.99 274.72 1321.59 276.107 1321.59 277.92V290H1316.47ZM1359.23 296H1354.11V285.48L1354.59 285.88C1354.32 286.813 1353.85 287.627 1353.19 288.32C1352.55 289.013 1351.76 289.547 1350.83 289.92C1349.92 290.293 1348.93 290.48 1347.87 290.48C1345.84 290.48 1344.15 289.973 1342.79 288.96C1341.45 287.947 1340.44 286.6 1339.75 284.92C1339.08 283.24 1338.75 281.373 1338.75 279.32C1338.75 277.267 1339.08 275.4 1339.75 273.72C1340.41 272.04 1341.41 270.693 1342.75 269.68C1344.11 268.667 1345.8 268.16 1347.83 268.16C1349.45 268.16 1350.88 268.573 1352.11 269.4C1353.33 270.2 1354.2 271.387 1354.71 272.96L1354.19 273.2L1354.31 268.64H1359.23V296ZM1349.07 286.32C1350.13 286.32 1351.04 286.067 1351.79 285.56C1352.53 285.027 1353.11 284.24 1353.51 283.2C1353.91 282.16 1354.11 280.867 1354.11 279.32C1354.11 277.773 1353.89 276.48 1353.47 275.44C1353.07 274.4 1352.49 273.627 1351.75 273.12C1351 272.587 1350.11 272.32 1349.07 272.32C1347.52 272.32 1346.29 272.947 1345.39 274.2C1344.51 275.427 1344.07 277.133 1344.07 279.32C1344.07 281.507 1344.51 283.227 1345.39 284.48C1346.29 285.707 1347.52 286.32 1349.07 286.32ZM1371.87 290.48C1369.71 290.48 1367.99 289.773 1366.71 288.36C1365.46 286.92 1364.83 284.933 1364.83 282.4V268.64H1369.95V281.12C1369.95 282.907 1370.24 284.227 1370.83 285.08C1371.44 285.907 1372.36 286.32 1373.59 286.32C1374.98 286.32 1376.04 285.867 1376.79 284.96C1377.56 284.027 1377.95 282.68 1377.95 280.92V268.64H1383.07V290H1378.39L1378.27 284.12L1378.91 284.32C1378.59 286.347 1377.83 287.88 1376.63 288.92C1375.43 289.96 1373.84 290.48 1371.87 290.48ZM1397.55 290.48C1395.41 290.48 1393.56 290.027 1391.99 289.12C1390.41 288.187 1389.2 286.88 1388.35 285.2C1387.49 283.52 1387.07 281.56 1387.07 279.32C1387.07 277.08 1387.49 275.133 1388.35 273.48C1389.2 271.8 1390.4 270.493 1391.95 269.56C1393.52 268.627 1395.35 268.16 1397.43 268.16C1399.45 268.16 1401.23 268.613 1402.75 269.52C1404.29 270.427 1405.48 271.733 1406.31 273.44C1407.13 275.147 1407.55 277.2 1407.55 279.6V280.76H1392.39C1392.49 282.627 1393 284.04 1393.91 285C1394.84 285.933 1396.07 286.4 1397.59 286.4C1398.73 286.4 1399.68 286.147 1400.43 285.64C1401.2 285.107 1401.73 284.373 1402.03 283.44L1407.27 283.76C1406.68 285.84 1405.52 287.48 1403.79 288.68C1402.08 289.88 1400 290.48 1397.55 290.48ZM1392.39 277.32H1402.27C1402.16 275.587 1401.67 274.307 1400.79 273.48C1399.91 272.627 1398.79 272.2 1397.43 272.2C1396.07 272.2 1394.93 272.64 1394.03 273.52C1393.15 274.4 1392.6 275.667 1392.39 277.32ZM1411.55 290V268.64H1416.35L1416.55 274.56L1416.11 274.48C1416.43 272.427 1417.03 270.947 1417.91 270.04C1418.82 269.107 1420.04 268.64 1421.59 268.64H1423.55V273.04H1421.55C1420.46 273.04 1419.55 273.2 1418.83 273.52C1418.11 273.84 1417.56 274.347 1417.19 275.04C1416.84 275.707 1416.67 276.587 1416.67 277.68V290H1411.55ZM1424.45 290V284.4H1430.29V290H1424.45Z" fill="#EFBE61"/>
<path d="M75.1771 102.687C32.2219 -52.9694 191.344 -68.8133 306.177 -21.8133C373.177 2.35817 417.177 -72.8133 500.177 -42.8133C583.177 -12.8133 483.678 81.6867 610.678 130.187C737.678 178.687 675.677 395.687 564.677 398.187C453.677 400.687 484.177 437.187 373.177 520.687C262.177 604.187 75.1774 488.187 121.677 365.687C168.177 243.187 121.677 271.187 75.1771 102.687Z" stroke="#EFBE61" stroke-width="3"/>
<path d="M314.075 223.825C309.119 209 332.333 185.083 351 195.29C368.093 204.637 385.5 198.333 397 202.5C427.275 213.47 416.139 219.277 429.673 232.305C446.141 248.16 454 289.675 416.139 289.675C385 289.675 394.317 304.799 371 311.5C347.683 318.201 321.24 306.794 321.24 276.763C321.24 265.485 322.33 248.517 314.075 223.825Z" stroke="#EFBE61" stroke-width="3"/>
<path d="M96.8921 112.943C57.3914 -29.9102 204.158 -46.488 310.249 -2.83285C372.712 19.9909 414.295 -48.9199 490.795 -21.2683C569.001 7.00167 477.535 93.4387 594.22 138.714C711.171 184.246 655.522 385.293 551.171 387.566C447.431 389.838 476.005 424.395 372.976 500.913C269.948 577.432 97.5436 470.94 139.816 356.846C182.089 244.457 139.915 268.37 96.8921 112.943Z" stroke="#EFBE61" stroke-width="3"/>
<path d="M118.607 123.2C82.5609 -6.85059 216.973 -24.1623 314.321 16.148C372.247 37.6241 411.412 -25.026 481.412 0.27711C554.826 26.8171 471.392 105.191 577.762 147.242C684.665 189.806 635.366 374.9 537.664 376.945C441.185 378.991 467.833 411.604 372.775 481.141C277.718 550.677 119.91 453.694 157.955 348.007C196.001 245.729 158.153 265.553 118.607 123.2Z" stroke="#EFBE61" stroke-width="3"/>
<path d="M140.322 133.457C107.731 16.2096 229.787 -1.83606 318.393 35.1295C371.782 55.2579 408.529 -1.13152 472.029 21.8231C540.65 46.6331 465.249 116.944 561.304 155.77C658.159 195.367 615.211 364.507 524.158 366.325C434.938 368.143 459.661 398.814 372.575 461.368C285.488 523.923 142.277 436.449 176.095 339.167C209.913 247.001 176.392 262.737 140.322 133.457Z" stroke="#EFBE61" stroke-width="3"/>
<path d="M162.038 143.715C132.9 39.2706 242.602 20.491 322.465 54.1117C371.317 72.8924 405.647 22.7637 462.647 43.3699C526.474 66.4499 459.107 128.698 544.846 164.299C631.653 200.928 595.056 354.115 510.652 355.706C428.692 357.297 451.49 386.024 372.374 441.597C293.259 497.17 164.643 419.204 194.234 330.329C223.825 248.273 194.63 259.922 162.038 143.715Z" stroke="#EFBE61" stroke-width="3"/>
<path d="M183.754 154.493C158.071 62.8512 255.416 43.3377 326.538 73.6136C370.853 91.0466 402.765 47.1786 453.265 65.4363C512.299 86.7864 452.964 140.971 528.389 173.348C605.147 207.009 574.901 344.243 497.146 345.607C422.447 346.97 443.318 373.754 372.174 422.345C301.03 470.937 187.01 402.479 212.374 322.01C237.737 250.066 212.869 257.626 183.754 154.493Z" stroke="#EFBE61" stroke-width="3"/>
<path d="M205.47 165.886C183.241 87.0466 268.232 66.7992 330.61 93.7303C370.389 109.816 399.883 72.2083 443.883 88.1175C498.124 107.738 446.823 153.859 511.932 183.011C578.642 213.705 554.747 334.985 483.641 336.122C416.201 337.258 435.147 362.099 371.974 403.708C308.801 445.318 209.377 386.369 230.514 314.306C251.65 252.473 231.108 255.945 205.47 165.886Z" stroke="#EFBE61" stroke-width="3"/>
<path d="M227.186 177.313C208.412 111.276 281.047 90.2948 334.684 113.881C369.925 128.619 397.002 97.2721 434.502 110.833C483.95 128.723 440.681 166.782 495.475 192.709C552.137 220.435 534.593 325.762 470.136 326.671C409.956 327.58 426.976 350.477 371.775 385.106C316.573 419.734 231.745 370.293 248.654 306.636C265.563 254.914 249.348 254.299 227.186 177.313Z" stroke="#EFBE61" stroke-width="3"/>
<path d="M248.904 188.789C233.584 135.555 293.864 113.84 338.758 134.081C369.462 147.471 394.121 122.385 425.121 133.598C469.776 149.758 434.541 179.753 479.02 202.456C525.633 227.214 514.44 316.588 456.632 317.27C403.712 317.952 418.807 338.906 371.576 366.552C324.345 394.198 254.114 354.266 266.796 299.016C279.478 257.405 267.589 252.701 248.904 188.789Z" stroke="#EFBE61" stroke-width="3"/>
<path d="M270.622 200.337C258.757 159.906 306.682 137.457 342.834 154.354C369.001 166.396 391.243 147.571 415.743 156.435C455.604 170.865 428.402 192.797 462.566 212.275C499.131 234.065 494.288 307.487 443.129 307.941C397.47 308.396 410.638 327.406 371.379 348.071C332.12 368.735 276.484 338.312 284.939 291.468C293.393 259.968 285.831 251.176 270.622 200.337Z" stroke="#EFBE61" stroke-width="3"/>
<path d="M292.345 211.996C283.934 184.368 319.504 161.185 346.913 174.736C368.543 185.431 388.367 172.866 406.367 179.382C441.435 192.082 422.266 205.952 446.115 222.205C472.632 241.027 474.14 298.495 429.63 298.722C391.231 298.95 402.474 316.017 371.185 329.7C339.897 343.383 298.858 322.467 303.085 284.03C307.312 262.641 304.076 249.761 292.345 211.996Z" stroke="#EFBE61" stroke-width="3"/>
</g>
<defs>
<clipPath id="clip0_13_98">
<rect width="1500" height="500" fill="white"/>
</clipPath>
</defs>
</svg>
